<svg width="50" height="50" viewBox="0 0 50 50" fill="none" xmlns="http://www.w3.org/2000/svg">
<path d="M24.3625 0.0437498L25 0C26.1327 4.77681e-05 27.2271 0.410266 28.0808 1.15479C28.9345 1.89932 29.4897 2.92779 29.6437 4.05L29.6875 4.6875V20.3062L45.3125 20.3125C46.4452 20.3125 47.5396 20.7228 48.3933 21.4673C49.247 22.2118 49.8022 23.2403 49.9562 24.3625L50 25C50 26.1327 49.5897 27.2271 48.8452 28.0808C48.1007 28.9345 47.0722 29.4897 45.95 29.6437L45.3125 29.6875L29.6875 29.6812V45.3125C29.6875 46.4452 29.2772 47.5396 28.5327 48.3933C27.7882 49.247 26.7597 49.8022 25.6375 49.9562L25 50C23.8673 50 22.7729 49.5897 21.9192 48.8452C21.0655 48.1007 20.5103 47.0722 20.3563 45.95L20.3125 45.3125V29.6812L4.6875 29.6875C3.55477 29.6875 2.46036 29.2772 1.60668 28.5327C0.753005 27.7882 0.197802 26.7597 0.0437498 25.6375L0 25C4.77681e-05 23.8673 0.410266 22.7729 1.15479 21.9192C1.89932 21.0655 2.92779 20.5103 4.05 20.3563L4.6875 20.3125L20.3125 20.3062V4.6875C20.3125 3.55477 20.7228 2.46036 21.4673 1.60668C22.2118 0.753005 23.2403 0.197802 24.3625 0.0437498L25 0L24.3625 0.0437498Z" fill="#ACACAC"/>
</svg>
