<svg width="18" height="30" viewBox="0 0 18 30" fill="none" xmlns="http://www.w3.org/2000/svg">
<path d="M6.8248 14.937L16.8255 4.85714C17.3517 4.32364 17.6471 3.60195 17.6471 2.8497C17.6471 2.09745 17.3517 1.37577 16.8255 0.842265C16.5629 0.57538 16.2505 0.363547 15.9062 0.218986C15.5619 0.0744261 15.1927 0 14.8197 0C14.4468 0 14.0776 0.0744261 13.7333 0.218986C13.389 0.363547 13.0766 0.57538 12.8139 0.842265L0.835651 12.9154C0.570862 13.1801 0.360693 13.495 0.217268 13.842C0.073843 14.189 0 14.5611 0 14.937C0 15.3129 0.073843 15.6851 0.217268 16.0321C0.360693 16.3791 0.570862 16.694 0.835651 16.9587L12.8139 29.1742C13.0779 29.4381 13.391 29.6469 13.7352 29.7886C14.0794 29.9303 14.448 30.0021 14.8197 30C15.1915 30.0021 15.5601 29.9303 15.9043 29.7886C16.2485 29.6469 16.5616 29.4381 16.8255 29.1742C17.3517 28.6407 17.6471 27.919 17.6471 27.1668C17.6471 26.4145 17.3517 25.6928 16.8255 25.1593L6.8248 14.937Z" fill="#ACACAC"/>
</svg>
