<svg width="50" height="50" viewBox="0 0 50 50" fill="none" xmlns="http://www.w3.org/2000/svg">
<path d="M43.8027 27.5796C43.2507 27.5796 42.6736 27.4035 42.1216 27.2777C41.0038 27.0306 39.9054 26.7026 38.8348 26.2963C37.6709 25.8716 36.3914 25.8937 35.2427 26.3582C34.094 26.8228 33.1572 27.697 32.6125 28.8126L32.0605 29.945C29.6168 28.5816 27.3711 26.8882 25.3866 24.9123C23.4164 22.922 21.728 20.6698 20.3685 18.2189L21.4223 17.5144C22.5347 16.9681 23.4064 16.0285 23.8696 14.8765C24.3328 13.7244 24.3548 12.4412 23.9313 11.2739C23.533 10.198 23.2061 9.09677 22.9528 7.97752C22.8274 7.42393 22.727 6.84518 22.6517 6.26643C22.3471 4.49398 21.4214 2.88888 20.0414 1.74017C18.6615 0.59147 16.9179 -0.025349 15.1247 0.000798434H7.59769C6.51639 -0.00938394 5.44559 0.214216 4.4582 0.656375C3.4708 1.09853 2.58999 1.74887 1.87573 2.56312C1.16146 3.37736 0.630518 4.33639 0.319033 5.37493C0.00754883 6.41346 -0.0771607 7.50712 0.0706717 8.58143C1.40732 19.1232 6.20778 28.918 13.7138 36.4185C21.2198 43.919 31.0035 48.6978 41.5195 50H42.4729C44.3231 50.0027 46.1094 49.3219 47.4909 48.0876C48.2847 47.3756 48.9188 46.5028 49.3513 45.5268C49.7838 44.5508 50.0049 43.4939 49.9999 42.4259V34.8769C49.9692 33.1291 49.3345 31.4461 48.2043 30.1152C47.0741 28.7844 45.5184 27.8882 43.8027 27.5796ZM45.0572 42.6775C45.0567 43.0348 44.9804 43.3879 44.8333 43.7133C44.6862 44.0387 44.4717 44.3289 44.2041 44.5648C43.9246 44.8089 43.5969 44.9911 43.2423 45.0995C42.8878 45.2079 42.5145 45.24 42.1467 45.1938C32.7502 43.9855 24.0222 39.6743 17.3395 32.9401C10.6567 26.2059 6.39942 17.4322 5.23923 8.00268C5.1993 7.63409 5.23429 7.2612 5.3421 6.90655C5.44991 6.55191 5.6283 6.22286 5.86648 5.9393C6.1016 5.67089 6.39102 5.45577 6.71547 5.30825C7.03993 5.16074 7.39199 5.08421 7.74824 5.08376H15.2753C15.8587 5.07074 16.4285 5.26211 16.8864 5.62494C17.3443 5.98777 17.6618 6.49936 17.7843 7.07165C17.8846 7.75944 18.0101 8.43884 18.1606 9.10986C18.4505 10.4363 18.8362 11.7399 19.3148 13.0101L15.8021 14.6458C15.5018 14.784 15.2317 14.9803 15.0072 15.2235C14.7827 15.4667 14.6084 15.752 14.4941 16.0629C14.3799 16.3739 14.328 16.7044 14.3415 17.0356C14.355 17.3667 14.4336 17.6919 14.5727 17.9925C18.1837 25.7496 24.4011 31.9852 32.1358 35.6067C32.7466 35.8583 33.4318 35.8583 34.0426 35.6067C34.3555 35.4944 34.6431 35.3209 34.8886 35.0963C35.1341 34.8717 35.3327 34.6004 35.4728 34.2982L37.0284 30.7753C38.3254 31.2406 39.6492 31.6271 40.9926 31.9328C41.6617 32.0838 42.3391 32.2096 43.0249 32.3103C43.5955 32.4331 44.1056 32.7515 44.4674 33.2108C44.8292 33.6701 45.02 34.2414 45.007 34.8266L45.0572 42.6775Z" fill="#ACACAC"/>
</svg>
