<svg width="58" height="50" viewBox="0 0 58 50" fill="none" xmlns="http://www.w3.org/2000/svg">
<path d="M49.8688 20.9974C49.1727 20.9974 48.5051 21.2739 48.0128 21.7661C47.5206 22.2583 47.2441 22.9259 47.2441 23.622V41.9948C47.2441 42.6909 46.9676 43.3585 46.4753 43.8507C45.9831 44.3429 45.3155 44.6194 44.6194 44.6194H7.87401C7.17791 44.6194 6.51031 44.3429 6.01809 43.8507C5.52587 43.3585 5.24934 42.6909 5.24934 41.9948V20.9974C5.24934 20.3013 5.52587 19.6337 6.01809 19.1415C6.51031 18.6492 7.17791 18.3727 7.87401 18.3727H13.1234C13.6957 18.4026 14.2621 18.2443 14.736 17.922C15.21 17.5997 15.5654 17.1312 15.748 16.5879L17.1654 12.2835C17.3414 11.7621 17.6769 11.3094 18.1243 10.9891C18.5718 10.6688 19.1085 10.4973 19.6588 10.4987H34.1207C34.8168 10.4987 35.4844 10.2222 35.9767 9.72994C36.4689 9.23772 36.7454 8.57012 36.7454 7.87402C36.7454 7.17791 36.4689 6.51031 35.9767 6.01809C35.4844 5.52587 34.8168 5.24934 34.1207 5.24934H19.5276C17.8781 5.25243 16.2712 5.77345 14.9338 6.73886C13.5963 7.70427 12.5958 9.06533 12.0735 10.6299L11.2336 13.2546H7.87401C5.7857 13.2546 3.78291 14.0842 2.30625 15.5608C0.829581 17.0375 0 19.0403 0 21.1286V42.126C0 44.2143 0.829581 46.2171 2.30625 47.6938C3.78291 49.1704 5.7857 50 7.87401 50H44.6194C46.7077 50 48.7105 49.1704 50.1872 47.6938C51.6639 46.2171 52.4934 44.2143 52.4934 42.126V23.7533C52.5112 23.3977 52.4565 23.0423 52.3326 22.7085C52.2087 22.3748 52.0182 22.0697 51.7727 21.8119C51.5272 21.5541 51.2318 21.349 50.9044 21.2089C50.5771 21.0689 50.2248 20.9969 49.8688 20.9974ZM26.2467 18.3727C24.1703 18.3727 22.1405 18.9884 20.414 20.1421C18.6875 21.2957 17.3418 22.9353 16.5472 24.8537C15.7526 26.7721 15.5447 28.883 15.9498 30.9196C16.3549 32.9561 17.3548 34.8268 18.823 36.2951C20.2913 37.7634 22.162 38.7633 24.1985 39.1684C26.2351 39.5734 28.346 39.3655 30.2644 38.5709C32.1828 37.7763 33.8224 36.4306 34.9761 34.7041C36.1297 32.9776 36.7454 30.9478 36.7454 28.8714C36.7454 26.087 35.6393 23.4166 33.6704 21.4477C31.7015 19.4788 29.0311 18.3727 26.2467 18.3727ZM26.2467 34.1207C25.2085 34.1207 24.1936 33.8129 23.3303 33.2361C22.4671 32.6593 21.7943 31.8394 21.397 30.8802C20.9996 29.921 20.8957 28.8656 21.0982 27.8473C21.3008 26.829 21.8007 25.8937 22.5349 25.1595C23.269 24.4254 24.2043 23.9255 25.2226 23.7229C26.2409 23.5204 27.2964 23.6243 28.2556 24.0216C29.2147 24.4189 30.0346 25.0918 30.6114 25.955C31.1882 26.8183 31.4961 27.8332 31.4961 28.8714C31.4961 30.2636 30.943 31.5988 29.9586 32.5832C28.9741 33.5677 27.6389 34.1207 26.2467 34.1207ZM55.1181 5.24934H52.4934V2.62467C52.4934 1.92857 52.2169 1.26097 51.7247 0.768748C51.2325 0.276527 50.5649 0 49.8688 0C49.1727 0 48.5051 0.276527 48.0128 0.768748C47.5206 1.26097 47.2441 1.92857 47.2441 2.62467V5.24934H44.6194C43.9233 5.24934 43.2557 5.52587 42.7635 6.01809C42.2713 6.51031 41.9947 7.17791 41.9947 7.87402C41.9947 8.57012 42.2713 9.23772 42.7635 9.72994C43.2557 10.2222 43.9233 10.4987 44.6194 10.4987H47.2441V13.1234C47.2441 13.8195 47.5206 14.4871 48.0128 14.9793C48.5051 15.4715 49.1727 15.748 49.8688 15.748C50.5649 15.748 51.2325 15.4715 51.7247 14.9793C52.2169 14.4871 52.4934 13.8195 52.4934 13.1234V10.4987H55.1181C55.8142 10.4987 56.4818 10.2222 56.974 9.72994C57.4663 9.23772 57.7428 8.57012 57.7428 7.87402C57.7428 7.17791 57.4663 6.51031 56.974 6.01809C56.4818 5.52587 55.8142 5.24934 55.1181 5.24934Z" fill="#ACACAC"/>
</svg>
