<svg width="54" height="46" viewBox="0 0 54 46" fill="none" xmlns="http://www.w3.org/2000/svg">
<path d="M45.899 8.0619H42.4431L41.5791 5.37462C41.019 3.79781 39.9801 2.4334 38.6062 1.47043C37.2324 0.507467 35.5916 -0.00638739 33.9113 5.99361e-05H20.0876C18.3908 0.0032194 16.7379 0.536664 15.362 1.52511C13.9862 2.51355 12.9571 3.90707 12.4197 5.50898L11.5558 8.19626H8.09983C5.95162 8.19626 3.8914 9.04563 2.37239 10.5575C0.853373 12.0694 0 14.12 0 16.2581V37.7563C0 39.8945 0.853373 41.945 2.37239 43.4569C3.8914 44.9688 5.95162 45.8182 8.09983 45.8182H45.899C48.0473 45.8182 50.1075 44.9688 51.6265 43.4569C53.1455 41.945 53.9989 39.8945 53.9989 37.7563V16.2581C54.0168 15.1882 53.8205 14.1254 53.4215 13.1317C53.0225 12.138 52.4287 11.2334 51.6748 10.4705C50.9208 9.70756 50.0218 9.10169 49.0302 8.68817C48.0386 8.27464 46.9742 8.06175 45.899 8.0619ZM48.599 37.622C48.599 38.3347 48.3145 39.0182 47.8082 39.5222C47.3019 40.0261 46.6151 40.3093 45.899 40.3093H8.09983C7.38376 40.3093 6.69702 40.0261 6.19068 39.5222C5.68435 39.0182 5.39989 38.3347 5.39989 37.622V16.1237C5.39989 15.411 5.68435 14.7275 6.19068 14.2235C6.69702 13.7196 7.38376 13.4365 8.09983 13.4365H13.4997C14.0885 13.467 14.6711 13.305 15.1587 12.975C15.6462 12.6451 16.0118 12.1653 16.1997 11.6091L17.6576 7.20197C17.8388 6.66822 18.1838 6.20463 18.6441 5.87672C19.1044 5.54881 19.6566 5.37317 20.2226 5.37462H34.0463C34.6123 5.37317 35.1645 5.54881 35.6248 5.87672C36.085 6.20463 36.4301 6.66822 36.6112 7.20197L38.0692 11.6091C38.2425 12.1217 38.5671 12.5703 39.0006 12.8963C39.4341 13.2224 39.9564 13.4106 40.4992 13.4365H45.899C46.6151 13.4365 47.3019 13.7196 47.8082 14.2235C48.3145 14.7275 48.599 15.411 48.599 16.1237V37.622ZM26.9994 13.4365C24.8634 13.4365 22.7754 14.0669 20.9994 15.248C19.2234 16.4291 17.8392 18.1079 17.0217 20.0721C16.2043 22.0362 15.9905 24.1975 16.4072 26.2826C16.8239 28.3678 17.8525 30.2831 19.3628 31.7864C20.8732 33.2896 22.7976 34.3134 24.8925 34.7282C26.9875 35.1429 29.1589 34.93 31.1323 34.1165C33.1057 33.3029 34.7924 31.9251 35.9791 30.1575C37.1658 28.3898 37.7992 26.3116 37.7992 24.1856C37.7992 21.3347 36.6614 18.6007 34.636 16.5848C32.6107 14.569 29.8637 13.4365 26.9994 13.4365ZM26.9994 29.5601C25.9314 29.5601 24.8874 29.2449 23.9994 28.6544C23.1114 28.0638 22.4193 27.2244 22.0106 26.2423C21.6019 25.2603 21.495 24.1796 21.7033 23.1371C21.9117 22.0945 22.426 21.1368 23.1811 20.3852C23.9363 19.6335 24.8985 19.1217 25.946 18.9143C26.9934 18.7069 28.0792 18.8133 29.0659 19.2201C30.0526 19.6269 30.8959 20.3158 31.4893 21.1996C32.0826 22.0835 32.3993 23.1226 32.3993 24.1856C32.3993 25.611 31.8304 26.978 30.8177 27.986C29.8051 28.9939 28.4316 29.5601 26.9994 29.5601Z" fill="#ACACAC"/>
</svg>
