<svg width="55" height="50" viewBox="0 0 55 50" fill="none" xmlns="http://www.w3.org/2000/svg">
<path d="M28.034 8.03717L31.7586 11.7861C31.9894 12.0203 32.2641 12.2063 32.5666 12.3331C32.8692 12.46 33.1938 12.5254 33.5216 12.5254C33.8494 12.5254 34.1739 12.46 34.4765 12.3331C34.7791 12.2063 35.0537 12.0203 35.2846 11.7861C35.6614 11.388 35.8973 10.8759 35.9556 10.3291C36.014 9.7824 35.8916 9.23156 35.6074 8.76196H44.6954C45.354 8.76196 45.9856 8.49864 46.4512 8.02993C46.9169 7.56123 47.1785 6.92553 47.1785 6.26268C47.1785 5.59983 46.9169 4.96413 46.4512 4.49543C45.9856 4.02672 45.354 3.7634 44.6954 3.7634H35.6074C35.8916 3.2938 36.014 2.74296 35.9556 2.19623C35.8973 1.6495 35.6614 1.13741 35.2846 0.739281C35.0537 0.505028 34.7791 0.319096 34.4765 0.192212C34.1739 0.0653267 33.8494 0 33.5216 0C33.1938 0 32.8692 0.0653267 32.5666 0.192212C32.2641 0.319096 31.9894 0.505028 31.7586 0.739281L28.034 4.48819C27.8079 4.72588 27.6307 5.00617 27.5125 5.31296C27.2642 5.92143 27.2642 6.60393 27.5125 7.21241C27.6307 7.51919 27.8079 7.79948 28.034 8.03717ZM54.4291 17.8093C54.3109 17.5025 54.1337 17.2223 53.9077 16.9846L50.183 13.2357C49.9522 13.0014 49.6776 12.8155 49.375 12.6886C49.0724 12.5617 48.7479 12.4964 48.4201 12.4964C48.0923 12.4964 47.7677 12.5617 47.4651 12.6886C47.1625 12.8155 46.8879 13.0014 46.6571 13.2357C46.2802 13.6338 46.0444 14.1459 45.986 14.6926C45.9277 15.2393 46.0501 15.7902 46.3343 16.2598H37.2462C36.5877 16.2598 35.9561 16.5231 35.4904 16.9918C35.0247 17.4605 34.7631 18.0962 34.7631 18.7591C34.7631 19.4219 35.0247 20.0576 35.4904 20.5263C35.9561 20.995 36.5877 21.2583 37.2462 21.2583H46.3343C46.0501 21.7279 45.9277 22.2788 45.986 22.8255C46.0444 23.3722 46.2802 23.8843 46.6571 24.2825C46.8879 24.5167 47.1625 24.7026 47.4651 24.8295C47.7677 24.9564 48.0923 25.0217 48.4201 25.0217C48.7479 25.0217 49.0724 24.9564 49.375 24.8295C49.6776 24.7026 49.9522 24.5167 50.183 24.2825L53.9077 20.5335C54.1337 20.2959 54.3109 20.0156 54.4291 19.7088C54.6775 19.1003 54.6775 18.4178 54.4291 17.8093ZM24.8308 20.0087C22.8664 20.0087 20.9461 20.595 19.3127 21.6935C17.6793 22.792 16.4063 24.3533 15.6545 26.1801C14.9028 28.0068 14.7061 30.0169 15.0893 31.9561C15.4726 33.8954 16.4185 35.6767 17.8076 37.0748C19.1966 38.4729 20.9664 39.4251 22.8931 39.8108C24.8198 40.1965 26.8168 39.9986 28.6317 39.2419C30.4466 38.4853 31.9978 37.2039 33.0892 35.5599C34.1806 33.9159 34.7631 31.983 34.7631 30.0058C34.7631 27.3544 33.7167 24.8116 31.854 22.9368C29.9913 21.062 27.465 20.0087 24.8308 20.0087ZM24.8308 35.0043C23.8486 35.0043 22.8884 34.7112 22.0718 34.1619C21.2551 33.6127 20.6185 32.832 20.2427 31.9187C19.8668 31.0053 19.7684 30.0003 19.9601 29.0306C20.1517 28.061 20.6247 27.1703 21.3192 26.4713C22.0137 25.7722 22.8986 25.2962 23.862 25.1033C24.8253 24.9104 25.8238 25.0094 26.7313 25.3877C27.6387 25.7661 28.4143 26.4067 28.96 27.2288C29.5057 28.0508 29.797 29.0172 29.797 30.0058C29.797 31.3315 29.2737 32.6029 28.3424 33.5403C27.4111 34.4777 26.1479 35.0043 24.8308 35.0043ZM47.1785 27.5065C46.52 27.5065 45.8884 27.7698 45.4227 28.2385C44.9571 28.7072 44.6954 29.3429 44.6954 30.0058V42.5022C44.6954 43.165 44.4338 43.8007 43.9682 44.2694C43.5025 44.7381 42.8709 45.0014 42.2124 45.0014H7.44924C6.79069 45.0014 6.15911 44.7381 5.69344 44.2694C5.22777 43.8007 4.96616 43.165 4.96616 42.5022V22.508C4.96616 21.8451 5.22777 21.2094 5.69344 20.7407C6.15911 20.272 6.79069 20.0087 7.44924 20.0087H12.4154C12.96 20.0355 13.4982 19.8812 13.947 19.5695C14.3957 19.2578 14.7301 18.8062 14.8985 18.2842L16.2393 14.2354C16.3946 13.754 16.6913 13.3314 17.0904 13.0234C17.4894 12.7155 17.9719 12.5368 18.4741 12.5109H22.3477C23.0063 12.5109 23.6379 12.2476 24.1035 11.7788C24.5692 11.3101 24.8308 10.6744 24.8308 10.0116C24.8308 9.34874 24.5692 8.71304 24.1035 8.24434C23.6379 7.77563 23.0063 7.51232 22.3477 7.51232H18.4741C16.9063 7.51175 15.3783 8.00909 14.1077 8.9335C12.837 9.85791 11.8886 11.1623 11.3973 12.6608L10.6276 15.0101H7.44924C5.47358 15.0101 3.57884 15.8001 2.18183 17.2062C0.784828 18.6123 0 20.5194 0 22.508V42.5022C0 44.4907 0.784828 46.3978 2.18183 47.8039C3.57884 49.2101 5.47358 50 7.44924 50H42.2124C44.188 50 46.0828 49.2101 47.4798 47.8039C48.8768 46.3978 49.6616 44.4907 49.6616 42.5022V30.0058C49.6616 29.3429 49.4 28.7072 48.9343 28.2385C48.4687 27.7698 47.8371 27.5065 47.1785 27.5065Z" fill="#ACACAC"/>
</svg>
