<svg width="52" height="50" viewBox="0 0 52 50" fill="none" xmlns="http://www.w3.org/2000/svg">
<path d="M25.8175 0C22.4367 0 19.0889 0.646616 15.9654 1.90293C12.8418 3.15924 10.0037 5.00064 7.61309 7.32201C2.78497 12.0102 0.0725657 18.3688 0.0725657 24.9989C0.050059 30.7715 2.10846 36.3697 5.89093 40.8232L0.741935 45.823C0.384704 46.1745 0.142711 46.6209 0.0464912 47.1059C-0.0497284 47.5908 0.00413695 48.0926 0.20129 48.5479C0.415123 48.9977 0.761769 49.3756 1.19723 49.6338C1.63268 49.8919 2.13731 50.0186 2.64706 49.9978H25.8175C32.6455 49.9978 39.1939 47.364 44.022 42.6758C48.8501 37.9876 51.5625 31.629 51.5625 24.9989C51.5625 18.3688 48.8501 12.0102 44.022 7.32201C39.1939 2.6338 32.6455 0 25.8175 0V0ZM25.8175 44.998H8.8516L11.2459 42.6731C11.7254 42.2047 11.9945 41.5711 11.9945 40.9107C11.9945 40.2503 11.7254 39.6167 11.2459 39.1483C7.8748 35.8785 5.77552 31.5749 5.30572 26.9708C4.83592 22.3666 6.02465 17.7467 8.6694 13.8982C11.3141 10.0497 15.2513 7.21058 19.81 5.86467C24.3687 4.51877 29.267 4.7493 33.6703 6.517C38.0736 8.28469 41.7095 11.4802 43.9586 15.559C46.2076 19.6379 46.9306 24.3478 46.0045 28.8862C45.0783 33.4247 42.5603 37.511 38.8793 40.4488C35.1984 43.3867 30.5823 44.9944 25.8175 44.998V44.998Z" fill="#ACACAC"/>
</svg>
