<svg width="69" height="50" viewBox="0 0 69 50" fill="none" xmlns="http://www.w3.org/2000/svg">
<path d="M67.1711 1.44693C66.7164 0.988446 66.1754 0.624537 65.5793 0.376197C64.9832 0.127857 64.3438 0 63.6981 0C63.0523 0 62.413 0.127857 61.8169 0.376197C61.2208 0.624537 60.6798 0.988446 60.2251 1.44693L23.7826 37.9383L8.47188 22.5787C7.99973 22.1226 7.44238 21.7639 6.83164 21.5233C6.22089 21.2826 5.56873 21.1645 4.91237 21.1759C4.25601 21.1873 3.60831 21.3278 3.00626 21.5894C2.40421 21.8511 1.8596 22.2288 1.40351 22.7009C0.947424 23.1731 0.588802 23.7304 0.348115 24.3412C0.107429 24.9519 -0.0106077 25.6041 0.000748016 26.2605C0.0121037 26.9168 0.152629 27.5645 0.414298 28.1666C0.675967 28.7686 1.05366 29.3132 1.5258 29.7693L20.3096 48.5531C20.7643 49.0116 21.3053 49.3755 21.9014 49.6238C22.4975 49.8721 23.1369 50 23.7826 50C24.4284 50 25.0677 49.8721 25.6638 49.6238C26.2599 49.3755 26.8009 49.0116 27.2556 48.5531L67.1711 8.63759C67.6676 8.17953 68.0639 7.62359 68.3349 7.0048C68.606 6.38602 68.7459 5.7178 68.7459 5.04226C68.7459 4.36672 68.606 3.6985 68.3349 3.07971C68.0639 2.46093 67.6676 1.90499 67.1711 1.44693Z" fill="#ACACAC"/>
</svg>
