<svg width="50" height="50" viewBox="0 0 50 50" fill="none" xmlns="http://www.w3.org/2000/svg">
<path d="M48.8925 1.1454C48.5417 0.793827 48.1249 0.514901 47.6661 0.324589C47.2073 0.134278 46.7155 0.0363179 46.2188 0.0363179C45.7221 0.0363179 45.2303 0.134278 44.7715 0.324589C44.3128 0.514901 43.896 0.793827 43.5451 1.1454L25 19.6526L6.45485 1.10748C6.10374 0.756363 5.68691 0.477844 5.22815 0.287823C4.7694 0.0978017 4.27772 3.69958e-09 3.78117 0C3.28462 -3.69958e-09 2.79293 0.0978017 2.33417 0.287823C1.87542 0.477844 1.45859 0.756363 1.10748 1.10748C0.756363 1.45859 0.477844 1.87542 0.287823 2.33417C0.0978017 2.79293 -3.69958e-09 3.28462 0 3.78117C3.69958e-09 4.27772 0.0978017 4.7694 0.287823 5.22815C0.477844 5.68691 0.756363 6.10374 1.10748 6.45485L19.6526 25L1.10748 43.5451C0.756363 43.8963 0.477844 44.3131 0.287823 44.7719C0.0978017 45.2306 0 45.7223 0 46.2188C0 46.7154 0.0978017 47.2071 0.287823 47.6658C0.477844 48.1246 0.756363 48.5414 1.10748 48.8925C1.45859 49.2436 1.87542 49.5222 2.33417 49.7122C2.79293 49.9022 3.28462 50 3.78117 50C4.27772 50 4.7694 49.9022 5.22815 49.7122C5.68691 49.5222 6.10374 49.2436 6.45485 48.8925L25 30.3474L43.5451 48.8925C43.8963 49.2436 44.3131 49.5222 44.7719 49.7122C45.2306 49.9022 45.7223 50 46.2188 50C46.7154 50 47.2071 49.9022 47.6658 49.7122C48.1246 49.5222 48.5414 49.2436 48.8925 48.8925C49.2436 48.5414 49.5222 48.1246 49.7122 47.6658C49.9022 47.2071 50 46.7154 50 46.2188C50 45.7223 49.9022 45.2306 49.7122 44.7719C49.5222 44.3131 49.2436 43.8963 48.8925 43.5451L30.3474 25L48.8925 6.45485C50.3337 5.01372 50.3337 2.58654 48.8925 1.1454Z" fill="#ACACAC"/>
</svg>
