<svg width="49" height="50" viewBox="0 0 49 50" fill="none" xmlns="http://www.w3.org/2000/svg">
<path d="M33.1272 15.8376C32.9046 15.6061 32.6397 15.4224 32.3479 15.297C32.056 15.1716 31.743 15.1071 31.4269 15.1071C31.1107 15.1071 30.7977 15.1716 30.5059 15.297C30.214 15.4224 29.9492 15.6061 29.7265 15.8376L24.2424 21.5178L18.7583 15.8376C18.3073 15.3725 17.6957 15.1113 17.058 15.1113C16.4202 15.1113 15.8086 15.3725 15.3577 15.8376C14.9067 16.3026 14.6534 16.9334 14.6534 17.591C14.6534 18.2487 14.9067 18.8794 15.3577 19.3445L20.8657 25L15.3577 30.6555C15.1332 30.8851 14.955 31.1582 14.8335 31.4592C14.7119 31.7601 14.6493 32.0829 14.6493 32.409C14.6493 32.735 14.7119 33.0578 14.8335 33.3587C14.955 33.6597 15.1332 33.9328 15.3577 34.1624C15.5803 34.3939 15.8452 34.5776 16.137 34.703C16.4288 34.8284 16.7418 34.8929 17.058 34.8929C17.3741 34.8929 17.6871 34.8284 17.979 34.703C18.2708 34.5776 18.5357 34.3939 18.7583 34.1624L24.2424 28.4822L29.7265 34.1624C29.9492 34.3939 30.214 34.5776 30.5059 34.703C30.7977 34.8284 31.1107 34.8929 31.4269 34.8929C31.743 34.8929 32.056 34.8284 32.3479 34.703C32.6397 34.5776 32.9046 34.3939 33.1272 34.1624C33.3516 33.9328 33.5298 33.6597 33.6514 33.3587C33.773 33.0578 33.8356 32.735 33.8356 32.409C33.8356 32.0829 33.773 31.7601 33.6514 31.4592C33.5298 31.1582 33.3516 30.8851 33.1272 30.6555L27.6191 25L33.1272 19.3445C33.3516 19.1149 33.5298 18.8418 33.6514 18.5408C33.773 18.2399 33.8356 17.9171 33.8356 17.591C33.8356 17.265 33.773 16.9422 33.6514 16.6413C33.5298 16.3403 33.3516 16.0672 33.1272 15.8376ZM41.1738 7.53956C38.9646 5.18079 36.3221 3.29935 33.4003 2.00503C30.4785 0.710712 27.3361 0.0294277 24.1562 0.00093246C20.9764 -0.0275628 17.8229 0.597301 14.8798 1.83906C11.9367 3.08083 9.2628 4.91462 7.01425 7.23344C4.76569 9.55227 2.98747 12.3097 1.78334 15.3448C0.579201 18.3799 -0.0267276 21.6319 0.000904204 24.9111C0.028536 28.1903 0.689175 31.431 1.94427 34.4441C3.19937 37.4571 5.02379 40.1823 7.31109 42.4604C9.52023 44.8192 12.1628 46.7006 15.0845 47.995C18.0063 49.2893 21.1488 49.9706 24.3286 49.9991C27.5084 50.0276 30.6619 49.4027 33.605 48.1609C36.5482 46.9192 39.222 45.0854 41.4706 42.7666C43.7192 40.4477 45.4974 37.6903 46.7015 34.6552C47.9056 31.6201 48.5116 28.3681 48.4839 25.0889C48.4563 21.8097 47.7957 18.569 46.5406 15.5559C45.2855 12.5429 43.4611 9.81773 41.1738 7.53956ZM37.7971 38.9782C34.6647 42.212 30.5421 44.2258 26.1314 44.6765C21.7208 45.1271 17.2951 43.9868 13.6083 41.4498C9.92152 38.9128 7.20178 35.136 5.91245 30.7629C4.62312 26.3898 4.84396 21.691 6.53735 17.467C8.23075 13.243 11.2919 9.7552 15.1993 7.59775C19.1068 5.44029 23.6187 4.7467 27.9664 5.63514C32.3141 6.52358 36.2286 8.93909 39.043 12.4701C41.8573 16.0012 43.3975 20.4293 43.4009 25C43.4095 27.5963 42.9186 30.1686 41.9567 32.568C40.9948 34.9673 39.581 37.1461 37.7971 38.9782Z" fill="#ACACAC"/>
</svg>
