<svg width="50" height="50" viewBox="0 0 50 50" fill="none" xmlns="http://www.w3.org/2000/svg">
<path d="M15.0493 22.499C14.5555 22.499 14.0728 22.6456 13.6623 22.9203C13.2517 23.195 12.9318 23.5854 12.7428 24.0422C12.5539 24.499 12.5044 25.0017 12.6007 25.4866C12.6971 25.9715 12.9348 26.417 13.284 26.7666C13.6331 27.1162 14.0779 27.3543 14.5622 27.4507C15.0465 27.5472 15.5484 27.4977 16.0046 27.3085C16.4608 27.1193 16.8507 26.7989 17.125 26.3878C17.3993 25.9767 17.5457 25.4933 17.5457 24.9989C17.5457 24.3359 17.2827 23.7 16.8145 23.2312C16.3464 22.7624 15.7114 22.499 15.0493 22.499ZM25.0352 22.499C24.5414 22.499 24.0588 22.6456 23.6482 22.9203C23.2377 23.195 22.9177 23.5854 22.7287 24.0422C22.5398 24.499 22.4903 25.0017 22.5867 25.4866C22.683 25.9715 22.9208 26.417 23.2699 26.7666C23.619 27.1162 24.0639 27.3543 24.5481 27.4507C25.0324 27.5472 25.5344 27.4977 25.9905 27.3085C26.4467 27.1193 26.8366 26.7989 27.1109 26.3878C27.3853 25.9767 27.5317 25.4933 27.5317 24.9989C27.5317 24.3359 27.2686 23.7 26.8005 23.2312C26.3323 22.7624 25.6973 22.499 25.0352 22.499ZM35.0211 22.499C34.5274 22.499 34.0447 22.6456 33.6341 22.9203C33.2236 23.195 32.9036 23.5854 32.7147 24.0422C32.5257 24.499 32.4763 25.0017 32.5726 25.4866C32.6689 25.9715 32.9067 26.417 33.2558 26.7666C33.605 27.1162 34.0498 27.3543 34.5341 27.4507C35.0183 27.5472 35.5203 27.4977 35.9765 27.3085C36.4326 27.1193 36.8225 26.7989 37.0969 26.3878C37.3712 25.9767 37.5176 25.4933 37.5176 24.9989C37.5176 24.3359 37.2546 23.7 36.7864 23.2312C36.3182 22.7624 35.6832 22.499 35.0211 22.499ZM25.0352 0C21.7568 0 18.5104 0.646616 15.4816 1.90293C12.4527 3.15924 9.70059 5.00064 7.38239 7.32201C2.70058 12.0102 0.0703668 18.3688 0.0703668 24.9989C0.0485421 30.7715 2.04457 36.3697 5.71242 40.8232L0.719452 45.823C0.373046 46.1745 0.138386 46.6209 0.0450823 47.1059C-0.0482215 47.5908 0.00401159 48.0926 0.195191 48.5479C0.402543 48.9977 0.738685 49.3756 1.16095 49.6338C1.58321 49.8919 2.07255 50.0186 2.56685 49.9978H25.0352C31.6563 49.9978 38.0062 47.364 42.688 42.6758C47.3698 37.9876 50 31.629 50 24.9989C50 18.3688 47.3698 12.0102 42.688 7.32201C38.0062 2.6338 31.6563 0 25.0352 0ZM25.0352 44.998H8.58337L10.9051 42.6731C11.141 42.4416 11.3286 42.1655 11.4572 41.8608C11.5858 41.5561 11.6527 41.2289 11.654 40.8982C11.6447 40.2388 11.3755 39.6098 10.9051 39.1483C7.63617 35.8785 5.60051 31.5749 5.14494 26.9708C4.68938 22.3666 5.84209 17.7467 8.40669 13.8982C10.9713 10.0497 14.7891 7.21058 19.2097 5.86467C23.6303 4.51877 28.3801 4.7493 32.65 6.517C36.9199 8.28469 40.4456 11.4802 42.6265 15.559C44.8074 19.6379 45.5085 24.3478 44.6104 28.8862C43.7123 33.4247 41.2706 37.511 37.7012 40.4488C34.1318 43.3867 29.6556 44.9944 25.0352 44.998Z" fill="#ACACAC"/>
</svg>
