<svg width="48" height="50" viewBox="0 0 48 50" fill="none" xmlns="http://www.w3.org/2000/svg">
<path d="M45.24 19.0463C45.8715 19.0463 46.4771 18.7955 46.9236 18.3489C47.3702 17.9024 47.621 17.2968 47.621 16.6653V9.52214C47.621 9.02252 47.4637 8.53559 47.1713 8.13043C46.879 7.72527 46.4665 7.42244 45.9924 7.2649L24.5629 0.12175C24.0744 -0.0405834 23.5466 -0.0405834 23.0581 0.12175L1.62864 7.2649C1.15451 7.42244 0.742021 7.72527 0.449688 8.13043C0.157355 8.53559 1.89915e-05 9.02252 0 9.52214V16.6653C0 17.2968 0.25086 17.9024 0.697394 18.3489C1.14393 18.7955 1.74956 19.0463 2.38105 19.0463H4.7621V36.1518C3.37321 36.641 2.1698 37.5482 1.31714 38.7487C0.46448 39.9493 0.00437287 41.3843 0 42.8568V47.6189C0 48.2504 0.25086 48.8561 0.697394 49.3026C1.14393 49.7491 1.74956 50 2.38105 50H45.24C45.8715 50 46.4771 49.7491 46.9236 49.3026C47.3702 48.8561 47.621 48.2504 47.621 47.6189V42.8568C47.6166 41.3843 47.1565 39.9493 46.3039 38.7487C45.4512 37.5482 44.2478 36.641 42.8589 36.1518V19.0463H45.24ZM42.8589 45.2379H4.7621V42.8568C4.76273 42.2255 5.01379 41.6203 5.46019 41.1739C5.90659 40.7275 6.51185 40.4764 7.14315 40.4758H40.4779C41.1092 40.4764 41.7144 40.7275 42.1608 41.1739C42.6072 41.6203 42.8583 42.2255 42.8589 42.8568V45.2379ZM9.5242 35.7137V19.0463H14.2863V35.7137H9.5242ZM19.0484 35.7137V19.0463H28.5726V35.7137H19.0484ZM33.3347 35.7137V19.0463H38.0968V35.7137H33.3347ZM4.7621 14.2842V11.2365L23.8105 4.88861L42.8589 11.2389V14.2842H4.7621Z" fill="#ACACAC"/>
</svg>
