<svg width="50" height="50" viewBox="0 0 50 50" fill="none" xmlns="http://www.w3.org/2000/svg">
<path d="M42.5 5H37.5V2.5C37.5 1.83696 37.2366 1.20107 36.7678 0.732233C36.2989 0.263392 35.663 0 35 0C34.337 0 33.7011 0.263392 33.2322 0.732233C32.7634 1.20107 32.5 1.83696 32.5 2.5V5H17.5V2.5C17.5 1.83696 17.2366 1.20107 16.7678 0.732233C16.2989 0.263392 15.663 0 15 0C14.337 0 13.7011 0.263392 13.2322 0.732233C12.7634 1.20107 12.5 1.83696 12.5 2.5V5H7.5C5.51088 5 3.60322 5.79018 2.1967 7.1967C0.790177 8.60322 0 10.5109 0 12.5V42.5C0 44.4891 0.790177 46.3968 2.1967 47.8033C3.60322 49.2098 5.51088 50 7.5 50H42.5C44.4891 50 46.3968 49.2098 47.8033 47.8033C49.2098 46.3968 50 44.4891 50 42.5V12.5C50 10.5109 49.2098 8.60322 47.8033 7.1967C46.3968 5.79018 44.4891 5 42.5 5ZM45 42.5C45 43.163 44.7366 43.7989 44.2678 44.2678C43.7989 44.7366 43.163 45 42.5 45H7.5C6.83696 45 6.20107 44.7366 5.73223 44.2678C5.26339 43.7989 5 43.163 5 42.5V25H45V42.5ZM45 20H5V12.5C5 11.837 5.26339 11.2011 5.73223 10.7322C6.20107 10.2634 6.83696 10 7.5 10H12.5V12.5C12.5 13.163 12.7634 13.7989 13.2322 14.2678C13.7011 14.7366 14.337 15 15 15C15.663 15 16.2989 14.7366 16.7678 14.2678C17.2366 13.7989 17.5 13.163 17.5 12.5V10H32.5V12.5C32.5 13.163 32.7634 13.7989 33.2322 14.2678C33.7011 14.7366 34.337 15 35 15C35.663 15 36.2989 14.7366 36.7678 14.2678C37.2366 13.7989 37.5 13.163 37.5 12.5V10H42.5C43.163 10 43.7989 10.2634 44.2678 10.7322C44.7366 11.2011 45 11.837 45 12.5V20Z" fill="#ACACAC"/>
</svg>
