<svg width="30" height="18" viewBox="0 0 30 18" fill="none" xmlns="http://www.w3.org/2000/svg">
<path d="M29.1582 0.827557C28.625 0.297511 27.9037 0 27.1519 0C26.4 0 25.6787 0.297511 25.1455 0.827557L14.9289 10.9019L4.85448 0.827557C4.32127 0.297511 3.59998 0 2.84814 0C2.0963 0 1.37501 0.297511 0.841803 0.827557C0.575064 1.09212 0.363347 1.40687 0.218866 1.75367C0.0743853 2.10046 0 2.47244 0 2.84812C0 3.22381 0.0743853 3.59578 0.218866 3.94258C0.363347 4.28937 0.575064 4.60413 0.841803 4.86869L12.9083 16.9352C13.1728 17.2019 13.4876 17.4136 13.8344 17.5581C14.1812 17.7026 14.5532 17.777 14.9289 17.777C15.3045 17.777 15.6765 17.7026 16.0233 17.5581C16.3701 17.4136 16.6849 17.2019 16.9494 16.9352L29.1582 4.86869C29.4249 4.60413 29.6367 4.28937 29.7811 3.94258C29.9256 3.59578 30 3.22381 30 2.84812C30 2.47244 29.9256 2.10046 29.7811 1.75367C29.6367 1.40687 29.4249 1.09212 29.1582 0.827557Z" fill="#ACACAC"/>
</svg>
