<svg width="15" height="9" viewBox="0 0 15 9" fill="none" xmlns="http://www.w3.org/2000/svg">
<path d="M14.5791 0.413779C14.3125 0.148756 13.9518 0 13.5759 0C13.2 0 12.8394 0.148756 12.5728 0.413779L7.46443 5.45097L2.42724 0.413779C2.16063 0.148756 1.79999 0 1.42407 0C1.04815 0 0.687506 0.148756 0.420902 0.413779C0.287532 0.546059 0.181674 0.703437 0.109433 0.876834C0.0371927 1.05023 0 1.23622 0 1.42406C0 1.61191 0.0371927 1.79789 0.109433 1.97129C0.181674 2.14469 0.287532 2.30207 0.420902 2.43435L6.45414 8.46759C6.58642 8.60096 6.7438 8.70681 6.9172 8.77905C7.0906 8.85129 7.27658 8.88849 7.46443 8.88849C7.65227 8.88849 7.83826 8.85129 8.01165 8.77905C8.18505 8.70681 8.34243 8.60096 8.47471 8.46759L14.5791 2.43435C14.7125 2.30207 14.8183 2.14469 14.8906 1.97129C14.9628 1.79789 15 1.61191 15 1.42406C15 1.23622 14.9628 1.05023 14.8906 0.876834C14.8183 0.703437 14.7125 0.546059 14.5791 0.413779Z" fill="#ACACAC"/>
</svg>
