<svg width="46" height="50" viewBox="0 0 46 50" fill="none" xmlns="http://www.w3.org/2000/svg">
<path d="M42.7951 10H32.7257V7.5C32.7257 5.51088 31.93 3.60322 30.5137 2.1967C29.0975 0.790177 27.1765 0 25.1736 0H20.1389C18.136 0 16.215 0.790177 14.7988 2.1967C13.3825 3.60322 12.5868 5.51088 12.5868 7.5V10H2.51736C1.84972 10 1.20941 10.2634 0.737318 10.7322C0.265221 11.2011 0 11.837 0 12.5C0 13.163 0.265221 13.7989 0.737318 14.2678C1.20941 14.7366 1.84972 15 2.51736 15H5.03472V42.5C5.03472 44.4891 5.83039 46.3968 7.24668 47.8033C8.66297 49.2098 10.5839 50 12.5868 50H32.7257C34.7286 50 36.6495 49.2098 38.0658 47.8033C39.4821 46.3968 40.2778 44.4891 40.2778 42.5V15H42.7951C43.4628 15 44.1031 14.7366 44.5752 14.2678C45.0473 13.7989 45.3125 13.163 45.3125 12.5C45.3125 11.837 45.0473 11.2011 44.5752 10.7322C44.1031 10.2634 43.4628 10 42.7951 10ZM17.6215 7.5C17.6215 6.83696 17.8867 6.20107 18.3588 5.73223C18.8309 5.26339 19.4712 5 20.1389 5H25.1736C25.8413 5 26.4816 5.26339 26.9537 5.73223C27.4258 6.20107 27.691 6.83696 27.691 7.5V10H17.6215V7.5ZM35.2431 42.5C35.2431 43.163 34.9778 43.7989 34.5057 44.2678C34.0336 44.7366 33.3933 45 32.7257 45H12.5868C11.9192 45 11.2789 44.7366 10.8068 44.2678C10.3347 43.7989 10.0694 43.163 10.0694 42.5V15H35.2431V42.5Z" fill="#ACACAC"/>
</svg>
