<svg width="50" height="50" viewBox="0 0 50 50" fill="none" xmlns="http://www.w3.org/2000/svg">
<path d="M3.12392 49.9999H16.3691C16.7802 50.0023 17.1878 49.9235 17.5684 49.7681C17.949 49.6126 18.2952 49.3835 18.587 49.094L40.2042 27.4456L49.076 18.7613C49.3688 18.4709 49.6012 18.1254 49.7598 17.7447C49.9184 17.364 50 16.9557 50 16.5434C50 16.131 49.9184 15.7227 49.7598 15.342C49.6012 14.9613 49.3688 14.6158 49.076 14.3254L35.8308 0.924034C35.5404 0.631239 35.1949 0.398841 34.8142 0.240247C34.4335 0.0816523 34.0252 0 33.6128 0C33.2004 0 32.7921 0.0816523 32.4115 0.240247C32.0308 0.398841 31.6853 0.631239 31.3949 0.924034L22.5856 9.76457L0.905973 31.413C0.616449 31.7048 0.387391 32.051 0.231933 32.4316C0.0764751 32.8122 -0.00232471 33.2198 5.22131e-05 33.6309V46.8761C5.22131e-05 47.7046 0.329173 48.4992 0.915012 49.085C1.50085 49.6708 2.29542 49.9999 3.12392 49.9999ZM32.9057 8.25373C33.2963 7.86321 33.9294 7.86321 34.3199 8.25373L41.7463 15.6801C42.1368 16.0706 42.1368 16.7037 41.7463 17.0943L38.7246 20.1159C38.3341 20.5065 37.7009 20.5065 37.3104 20.1159L29.8841 12.6896C29.4935 12.2991 29.4935 11.6659 29.8841 11.2754L32.9057 8.25373ZM6.24778 35.3259C6.24778 35.0607 6.35314 34.8063 6.54068 34.6188L24.0652 17.0943C24.4557 16.7037 25.0889 16.7037 25.4794 17.0943L32.9057 24.5206C33.2963 24.9111 33.2963 25.5443 32.9057 25.9348L15.3812 43.4593C15.1937 43.6469 14.9393 43.7522 14.6741 43.7522H7.24778C6.6955 43.7522 6.24778 43.3045 6.24778 42.7522V35.3259Z" fill="#ACACAC"/>
</svg>
