<svg width="44" height="53" viewBox="0 0 44 53" fill="none" xmlns="http://www.w3.org/2000/svg">
<path d="M40.3334 50.4165C40.3334 51.6316 39.3484 52.6165 38.1334 52.6165C36.9183 52.6165 35.9334 51.6316 35.9334 50.4165V47.1165C35.9305 44.6863 34.8673 42.4528 33.1489 40.7344C31.4304 39.0159 29.8339 38.0492 27.4036 38.0463H16.4036C13.9733 38.0492 12.6518 39.0159 10.9333 40.7344C9.21489 42.4528 8.3446 44.6863 8.34169 47.1165V50.279C8.34169 51.57 7.29516 52.6165 6.00419 52.6165C4.71322 52.6165 3.66669 51.57 3.66669 50.279V47.1165C3.67057 43.7141 5.0239 40.4522 7.42977 38.0463C9.83565 35.6404 13.0976 34.2871 16.5 34.2832H27.5C30.9024 34.2871 34.1644 35.6404 36.5703 38.0463C38.9762 40.4522 40.3295 43.7141 40.3334 47.1165V50.4165Z" fill="#ACACAC"/>
<path d="M1.83333 8.6167C1.3471 8.6167 0.880788 8.80985 0.536971 9.15367C0.193155 9.49749 0 9.9638 0 10.45V25.025C0 26.0882 0.861852 26.95 1.925 26.95C2.98815 26.95 3.85 26.0882 3.85 25.025V10.45C3.85 9.9638 3.65685 9.49749 3.31303 9.15367C2.96921 8.80985 2.31956 8.6167 1.83333 8.6167Z" fill="#ACACAC"/>
<path d="M2.475 0C1.10809 0 0 1.1081 0 2.475C0 3.8419 1.10809 4.95 2.475 4.95H7.7912V17.7833C7.7912 21.1869 9.14328 24.4512 11.55 26.8579C13.9567 29.2646 17.05 31.4417 22 31.4417C26.95 31.4417 29.7678 29.2646 32.1745 26.8579C34.5813 24.4512 35.9333 21.1869 35.9333 17.7833V11.3667V4.95H41.525C42.8919 4.95 44 3.8419 44 2.475C44 1.1081 42.8919 0 41.525 0H2.475ZM12.8333 4.95H31.1667V10.45H12.8333V4.95ZM22 26.95C19.5688 26.95 17.2373 25.9842 15.5182 24.2651C13.7991 22.5461 12.8333 20.2145 12.8333 17.7833V14.7583H31.1667V17.7833C31.1667 20.2145 30.2009 22.5461 28.4818 24.2651C26.7627 25.9842 24.4312 26.95 22 26.95Z" fill="#ACACAC"/>
</svg>
