<svg width="50" height="40" viewBox="0 0 50 40" fill="none" xmlns="http://www.w3.org/2000/svg">
<path d="M42.5 0H7.5C5.51088 0 3.60322 0.778204 2.1967 2.16342C0.790177 3.54863 0 5.42738 0 7.38636V32.0076C0 33.9666 0.790177 35.8453 2.1967 37.2305C3.60322 38.6157 5.51088 39.3939 7.5 39.3939H42.5C44.4891 39.3939 46.3968 38.6157 47.8033 37.2305C49.2098 35.8453 50 33.9666 50 32.0076V7.38636C50 5.42738 49.2098 3.54863 47.8033 2.16342C46.3968 0.778204 44.4891 0 42.5 0ZM41.475 4.92424L26.775 19.4015C26.5426 19.6323 26.2661 19.8155 25.9614 19.9405C25.6568 20.0655 25.33 20.1298 25 20.1298C24.67 20.1298 24.3432 20.0655 24.0386 19.9405C23.7339 19.8155 23.4574 19.6323 23.225 19.4015L8.525 4.92424H41.475ZM45 32.0076C45 32.6606 44.7366 33.2868 44.2678 33.7486C43.7989 34.2103 43.163 34.4697 42.5 34.4697H7.5C6.83696 34.4697 6.20107 34.2103 5.73223 33.7486C5.26339 33.2868 5 32.6606 5 32.0076V8.39583L19.7 22.8731C21.1063 24.2563 23.0125 25.0333 25 25.0333C26.9875 25.0333 28.8937 24.2563 30.3 22.8731L45 8.39583V32.0076Z" fill="#ACACAC"/>
</svg>
