<svg width="50" height="50" viewBox="0 0 50 50" fill="none" xmlns="http://www.w3.org/2000/svg">
<path d="M45 25C45 19.6957 42.8929 14.6086 39.1421 10.8579C35.3914 7.10714 30.3043 5 25 5C19.6957 5 14.6086 7.10714 10.8579 10.8579C7.10714 14.6086 5 19.6957 5 25C5 30.3043 7.10714 35.3914 10.8579 39.1421C14.6086 42.8929 19.6957 45 25 45C30.3043 45 35.3914 42.8929 39.1421 39.1421C42.8929 35.3914 45 30.3043 45 25ZM50 25C50 31.6304 47.3661 37.9893 42.6777 42.6777C37.9893 47.3661 31.6304 50 25 50C21.717 50 18.4661 49.3534 15.4329 48.097C12.3998 46.8406 9.6438 44.9991 7.32233 42.6777C2.63392 37.9893 0 31.6304 0 25C0 18.3696 2.63392 12.0107 7.32233 7.32233C12.0107 2.63392 18.3696 0 25 0C28.283 0 31.5339 0.646644 34.5671 1.90301C37.6002 3.15938 40.3562 5.00087 42.6777 7.32233C44.9991 9.6438 46.8406 12.3998 48.097 15.4329C49.3534 18.4661 50 21.717 50 25ZM20 18.75C20 20.75 18.25 22.5 16.25 22.5C14.25 22.5 12.5 20.75 12.5 18.75C12.5 16.75 14.25 15 16.25 15C18.25 15 20 16.75 20 18.75ZM37.5 18.75C37.5 20.75 35.75 22.5 33.75 22.5C31.75 22.5 30 20.75 30 18.75C30 16.75 31.75 15 33.75 15C35.75 15 37.5 16.75 37.5 18.75ZM25 38.075C21.4836 38.075 18.3063 36.896 16.0264 35.0313C15.1003 34.2739 15.1728 32.9022 16.0188 32.0562C17.0707 31.0043 18.9115 31.2051 20.2134 31.9248C21.5111 32.6421 23.1792 33.075 25 33.075C26.8208 33.075 28.4889 32.6421 29.7866 31.9248C31.0885 31.2051 32.9293 31.0043 33.9812 32.0562C34.8272 32.9022 34.8997 34.2739 33.9736 35.0313C31.6937 36.896 28.5164 38.075 25 38.075Z" fill="#ACACAC"/>
</svg>
