<svg width="50" height="50" viewBox="0 0 50 50" fill="none" xmlns="http://www.w3.org/2000/svg">
<path fill-rule="evenodd" clip-rule="evenodd" d="M5 17.7273V5H17.7273V17.7273H5ZM0 0.999999C0 0.447715 0.447715 0 1 0H21.7273C22.2796 0 22.7273 0.447715 22.7273 1V21.7273C22.7273 22.2796 22.2796 22.7273 21.7273 22.7273H0.999999C0.447715 22.7273 0 22.2796 0 21.7273V0.999999ZM5 45V32.2727H17.7273V45H5ZM0 28.2727C0 27.7204 0.447715 27.2727 1 27.2727H21.7273C22.2796 27.2727 22.7273 27.7204 22.7273 28.2727V49C22.7273 49.5523 22.2796 50 21.7273 50H0.999999C0.447715 50 0 49.5523 0 49V28.2727ZM32.2727 5V17.7273H45V5H32.2727ZM28.2727 0C27.7204 0 27.2727 0.447715 27.2727 0.999999V21.7273C27.2727 22.2796 27.7204 22.7273 28.2727 22.7273H49C49.5523 22.7273 50 22.2796 50 21.7273V1C50 0.447715 49.5523 0 49 0H28.2727ZM32.2727 45V32.2727H45V45H32.2727ZM27.2727 28.2727C27.2727 27.7204 27.7204 27.2727 28.2727 27.2727H49C49.5523 27.2727 50 27.7204 50 28.2727V49C50 49.5523 49.5523 50 49 50H28.2727C27.7204 50 27.2727 49.5523 27.2727 49V28.2727Z" fill="#ACACAC"/>
</svg>
