<svg width="40" height="56" viewBox="0 0 40 56" fill="none" xmlns="http://www.w3.org/2000/svg">
<path d="M40 19.4931C40.0045 15.76 38.9065 12.1044 36.8369 8.96178C34.7673 5.81913 31.8132 3.32194 28.3268 1.76773C24.8403 0.213513 20.9684 -0.332202 17.1723 0.1956C13.3762 0.723402 9.81596 2.30247 6.91579 4.74467C4.01562 7.18687 1.89777 10.3892 0.814555 13.9703C-0.26866 17.5513 -0.271569 21.36 0.806176 24.9425C1.88392 28.5251 3.99688 31.7305 6.89332 34.1769C9.78975 36.6233 13.3476 38.2076 17.1428 38.7408V44.5263H14.2857C13.5279 44.5263 12.8012 44.8193 12.2654 45.341C11.7296 45.8626 11.4286 46.5701 11.4286 47.3078C11.4286 48.0455 11.7296 48.7529 12.2654 49.2746C12.8012 49.7962 13.5279 50.0892 14.2857 50.0892H17.1428V52.8707C17.1428 53.6084 17.4439 54.3159 17.9797 54.8375C18.5155 55.3591 19.2422 55.6522 20 55.6522C20.7577 55.6522 21.4845 55.3591 22.0203 54.8375C22.5561 54.3159 22.8571 53.6084 22.8571 52.8707V50.0892H25.7143C26.472 50.0892 27.1988 49.7962 27.7346 49.2746C28.2704 48.7529 28.5714 48.0455 28.5714 47.3078C28.5714 46.5701 28.2704 45.8626 27.7346 45.341C27.1988 44.8193 26.472 44.5263 25.7143 44.5263H22.8571V38.7408C27.6131 38.0726 31.963 35.7596 35.1109 32.2252C38.2588 28.6907 39.9944 24.1711 40 19.4931ZM20 33.4004C17.1745 33.4004 14.4125 32.5848 12.0633 31.0566C9.714 29.5285 7.88296 27.3564 6.80171 24.8152C5.72045 22.274 5.43755 19.4777 5.98877 16.7799C6.53999 14.0822 7.90057 11.6041 9.89846 9.65913C11.8964 7.71415 14.4418 6.3896 17.213 5.85299C19.9841 5.31637 22.8565 5.59178 25.4669 6.64439C28.0773 7.69701 30.3084 9.47955 31.8781 11.7666C33.4479 14.0536 34.2857 16.7425 34.2857 19.4931C34.2857 21.3194 33.9162 23.1279 33.1983 24.8152C32.4803 26.5025 31.4281 28.0357 30.1015 29.3271C28.775 30.6185 27.2001 31.6429 25.4669 32.3418C23.7337 33.0407 21.876 33.4004 20 33.4004Z" fill="#ACACAC"/>
</svg>
