<svg width="50" height="50" viewBox="0 0 50 50" fill="none" xmlns="http://www.w3.org/2000/svg">
<path d="M0 46.4286C0 45.4814 0.218399 44.573 0.607155 43.9032C0.995911 43.2334 1.52319 42.8571 2.07297 42.8571H24.3781C24.9279 42.8571 25.4552 43.2334 25.8439 43.9032C26.2327 44.573 26.4511 45.4814 26.4511 46.4286C26.4511 47.3758 26.2327 48.2842 25.8439 48.954C25.4552 49.6237 24.9279 50 24.3781 50H2.07297C1.52319 50 0.995911 49.6237 0.607155 48.954C0.218399 48.2842 0 47.3758 0 46.4286ZM0 25C0 24.0528 0.218399 23.1444 0.607155 22.4746C0.995911 21.8048 1.52319 21.4286 2.07297 21.4286H47.927C48.4768 21.4286 49.0041 21.8048 49.3928 22.4746C49.7816 23.1444 50 24.0528 50 25C50 25.9472 49.7816 26.8556 49.3928 27.5254C49.0041 28.1952 48.4768 28.5714 47.927 28.5714H2.07297C1.52319 28.5714 0.995911 28.1952 0.607155 27.5254C0.218399 26.8556 0 25.9472 0 25ZM0 3.57143C0 2.62423 0.218399 1.71582 0.607155 1.04605C0.995911 0.376275 1.52319 0 2.07297 0H47.6783C48.2281 0 48.7553 0.376275 49.1441 1.04605C49.5328 1.71582 49.7512 2.62423 49.7512 3.57143C49.7512 4.51863 49.5328 5.42704 49.1441 6.09681C48.7553 6.76658 48.2281 7.14286 47.6783 7.14286H2.07297C1.52319 7.14286 0.995911 6.76658 0.607155 6.09681C0.218399 5.42704 0 4.51863 0 3.57143Z" fill="#ACACAC"/>
</svg>
