<svg width="46" height="50" viewBox="0 0 46 50" fill="none" xmlns="http://www.w3.org/2000/svg">
<path d="M42.7951 15.0418L27.691 1.90755C26.3064 0.67913 24.514 0 22.6563 0C20.7987 0 19.0062 0.67913 17.6216 1.90755L2.51758 15.0418C1.71799 15.7512 1.07993 16.6213 0.645866 17.5944C0.211806 18.5674 -0.0082885 19.6211 0.000238629 20.6851V42.509C0.000238629 44.4957 0.795897 46.4011 2.21218 47.8059C3.62846 49.2108 5.54935 50 7.55227 50H37.7604C39.7633 50 41.6842 49.2108 43.1005 47.8059C44.5168 46.4011 45.3124 44.4957 45.3124 42.509V20.6601C45.3174 19.6003 45.0955 18.5515 44.6616 17.583C44.2277 16.6145 43.5915 15.7484 42.7951 15.0418V15.0418ZM27.691 45.006H17.6216V32.5209C17.6216 31.8587 17.8869 31.2235 18.359 30.7553C18.831 30.287 19.4713 30.0239 20.139 30.0239H25.1737C25.8413 30.0239 26.4816 30.287 26.9537 30.7553C27.4258 31.2235 27.691 31.8587 27.691 32.5209V45.006ZM40.2777 42.509C40.2777 43.1712 40.0125 43.8063 39.5404 44.2746C39.0683 44.7429 38.428 45.006 37.7604 45.006H32.7257V32.5209C32.7257 30.5342 31.93 28.6288 30.5138 27.224C29.0975 25.8191 27.1766 25.0299 25.1737 25.0299H20.139C18.1361 25.0299 16.2152 25.8191 14.7989 27.224C13.3826 28.6288 12.587 30.5342 12.587 32.5209V45.006H7.55227C6.88463 45.006 6.24433 44.7429 5.77224 44.2746C5.30015 43.8063 5.03493 43.1712 5.03493 42.509V20.6601C5.03538 20.3056 5.11194 19.9552 5.25952 19.6323C5.40709 19.3094 5.6223 19.0213 5.89082 18.7873L20.9949 5.67804C21.4543 5.27772 22.0448 5.05694 22.6563 5.05694C23.2678 5.05694 23.8584 5.27772 24.3178 5.67804L39.4218 18.7873C39.6904 19.0213 39.9056 19.3094 40.0531 19.6323C40.2007 19.9552 40.2773 20.3056 40.2777 20.6601V42.509Z" fill="#ACACAC"/>
</svg>
