<svg width="100" height="95" viewBox="0 0 100 95" fill="none" xmlns="http://www.w3.org/2000/svg">
<path d="M12.2833 50.8667H5.44008C3.99858 50.8667 2.61602 50.2946 1.59602 49.276C0.576021 48.2574 0.00198828 46.8756 0 45.4341V5.44011C0.00198512 3.99791 0.575777 2.61537 1.59556 1.59558C2.61534 0.575798 3.99789 0.00200583 5.44008 2.07008e-05H50.589C51.3047 -0.00195355 52.0137 0.137305 52.6755 0.409811C53.3372 0.682317 53.9387 1.08272 54.4455 1.58807C54.9522 2.09343 55.3543 2.6938 55.6286 3.3548C55.9029 4.0158 56.0441 4.72444 56.0441 5.44011V45.4341C56.0441 46.8749 55.4718 48.2567 54.453 49.2755C53.4342 50.2943 52.0524 50.8667 50.6116 50.8667H29.6241L15.0071 61.3116C14.7614 61.4875 14.4721 61.5925 14.1707 61.6152C13.8694 61.6379 13.5676 61.5775 13.2982 61.4405C13.0289 61.3035 12.8023 61.0952 12.6432 60.8383C12.4841 60.5814 12.3985 60.2857 12.3959 59.9835L12.2833 50.8667Z" fill="#FFC875"/>
<path d="M85.8858 82.0365H93.7496C95.4073 82.0365 96.9971 81.378 98.1693 80.2058C99.3415 79.0336 100 77.4438 100 75.786V29.8192C100 28.1615 99.3415 26.5716 98.1693 25.3994C96.9971 24.2272 95.4073 23.5687 93.7496 23.5687H41.8774C40.2197 23.5687 38.6299 24.2272 37.4577 25.3994C36.2855 26.5716 35.627 28.1615 35.627 29.8192V75.786C35.627 77.4438 36.2855 79.0336 37.4577 80.2058C38.6299 81.378 40.2197 82.0365 41.8774 82.0365H65.9639L82.7493 94.0422C83.0308 94.2401 83.3605 94.3582 83.7036 94.3838C84.0467 94.4095 84.3904 94.3418 84.6981 94.1879C85.0058 94.0341 85.2662 93.7998 85.4515 93.5099C85.6368 93.22 85.7402 92.8854 85.7508 92.5415L85.8858 82.0365Z" fill="#EF4765"/>
<path d="M67.8473 68.0198C68.5151 67.5546 73.4224 64.1105 76.0562 61.7318C78.6899 59.3532 88.3095 48.9608 80.8059 42.8529C74.3228 37.6004 68.2074 45.9894 67.7797 46.6047C67.352 45.9969 61.2441 37.6004 54.761 42.8529C47.2575 48.9608 56.9071 59.3607 59.5333 61.7318C62.1595 64.103 67.0819 67.5546 67.7422 68.0198H67.8473Z" fill="white"/>
<path d="M16.6954 16.5604C18.7012 16.5604 20.3272 14.9344 20.3272 12.9287C20.3272 10.9229 18.7012 9.29694 16.6954 9.29694C14.6897 9.29694 13.0637 10.9229 13.0637 12.9287C13.0637 14.9344 14.6897 16.5604 16.6954 16.5604Z" fill="white"/>
<path d="M28.0108 16.5604C30.0166 16.5604 31.6426 14.9344 31.6426 12.9287C31.6426 10.9229 30.0166 9.29694 28.0108 9.29694C26.0051 9.29694 24.3791 10.9229 24.3791 12.9287C24.3791 14.9344 26.0051 16.5604 28.0108 16.5604Z" fill="white"/>
<path d="M39.3337 16.5604C41.3394 16.5604 42.9654 14.9344 42.9654 12.9287C42.9654 10.9229 41.3394 9.29694 39.3337 9.29694C37.3279 9.29694 35.702 10.9229 35.702 12.9287C35.702 14.9344 37.3279 16.5604 39.3337 16.5604Z" fill="white"/>
</svg>
