<svg width="43" height="50" viewBox="0 0 43 50" fill="none" xmlns="http://www.w3.org/2000/svg">
<path d="M42.0873 19.1002C41.7389 15.4697 40.4575 11.9915 38.368 9.00416C36.2784 6.01683 33.4519 3.62222 30.1637 2.0535C26.8754 0.484787 23.2375 -0.20457 19.6041 0.0525597C15.9708 0.309689 12.4659 1.50454 9.43065 3.52077C6.82307 5.26666 4.63403 7.56916 3.02077 10.2629C1.40752 12.9566 0.410104 15.9746 0.100177 19.1002C-0.203852 22.2052 0.186221 25.3392 1.24209 28.2745C2.29797 31.2099 3.99316 33.8731 6.20469 36.071L19.3567 49.265C19.5874 49.4979 19.8618 49.6828 20.1642 49.8089C20.4666 49.9351 20.791 50 21.1186 50C21.4462 50 21.7705 49.9351 22.0729 49.8089C22.3753 49.6828 22.6497 49.4979 22.8804 49.265L35.9828 36.071C38.1943 33.8731 39.8895 31.2099 40.9454 28.2745C42.0013 25.3392 42.3914 22.2052 42.0873 19.1002ZM32.5087 32.5675L21.0938 43.9973L9.67881 32.5675C7.99656 30.883 6.70795 28.8462 5.90559 26.6035C5.10323 24.3608 4.80707 21.968 5.03838 19.5971C5.27119 17.1896 6.03536 14.864 7.27564 12.7885C8.51591 10.7129 10.2013 8.93928 12.2099 7.59576C14.8427 5.84459 17.9331 4.91047 21.0938 4.91047C24.2544 4.91047 27.3448 5.84459 29.9776 7.59576C31.9801 8.93408 33.6618 10.6999 34.9018 12.7664C36.1417 14.8328 36.9092 17.1486 37.1491 19.5474C37.388 21.9264 37.0955 24.3288 36.293 26.5806C35.4904 28.8325 34.1978 30.8775 32.5087 32.5675ZM21.0938 10.0805C18.8852 10.0805 16.7262 10.7363 14.8898 11.9649C13.0534 13.1935 11.6222 14.9398 10.777 16.983C9.93179 19.0261 9.71065 21.2743 10.1415 23.4433C10.5724 25.6122 11.6359 27.6046 13.1976 29.1683C14.7593 30.7321 16.7491 31.797 18.9152 32.2284C21.0814 32.6598 23.3266 32.4384 25.3671 31.5921C27.4076 30.7458 29.1516 29.3127 30.3786 27.4739C31.6056 25.6352 32.2605 23.4734 32.2605 21.2619C32.254 18.2984 31.0754 15.4582 28.9826 13.3627C26.8899 11.2672 24.0534 10.0871 21.0938 10.0805ZM21.0938 27.4738C19.8668 27.4738 18.6673 27.1094 17.6471 26.4269C16.6269 25.7443 15.8318 24.7741 15.3622 23.6391C14.8927 22.504 14.7698 21.255 15.0092 20.05C15.2486 18.845 15.8394 17.7382 16.707 16.8694C17.5746 16.0007 18.68 15.4091 19.8835 15.1694C21.0869 14.9297 22.3342 15.0527 23.4678 15.5229C24.6014 15.993 25.5703 16.7892 26.252 17.8107C26.9337 18.8323 27.2975 20.0333 27.2975 21.2619C27.2975 22.9094 26.6439 24.4894 25.4805 25.6543C24.317 26.8193 22.7391 27.4738 21.0938 27.4738Z" fill="#ACACAC"/>
</svg>
