<svg width="40" height="50" viewBox="0 0 40 50" fill="none" xmlns="http://www.w3.org/2000/svg">
<path d="M0 25C0 25.663 0.257219 26.2989 0.715072 26.7678C1.17292 27.2366 1.79391 27.5 2.44141 27.5H20.9717L15.3564 33.225C15.1276 33.4574 14.946 33.7339 14.822 34.0386C14.6981 34.3432 14.6343 34.67 14.6343 35C14.6343 35.33 14.6981 35.6568 14.822 35.9614C14.946 36.2661 15.1276 36.5426 15.3564 36.775C15.5834 37.0093 15.8534 37.1953 16.1509 37.3222C16.4484 37.4492 16.7675 37.5145 17.0898 37.5145C17.4121 37.5145 17.7312 37.4492 18.0288 37.3222C18.3263 37.1953 18.5963 37.0093 18.8232 36.775L28.5889 26.775C28.8111 26.5372 28.9854 26.2569 29.1016 25.95C29.3457 25.3413 29.3457 24.6587 29.1016 24.05C28.9854 23.7431 28.8111 23.4628 28.5889 23.225L18.8232 13.225C18.5956 12.9919 18.3254 12.807 18.028 12.6809C17.7305 12.5547 17.4118 12.4898 17.0898 12.4898C16.7679 12.4898 16.4492 12.5547 16.1517 12.6809C15.8543 12.807 15.5841 12.9919 15.3564 13.225C15.1288 13.4581 14.9482 13.7348 14.825 14.0394C14.7019 14.3439 14.6384 14.6704 14.6384 15C14.6384 15.3296 14.7019 15.6561 14.825 15.9606C14.9482 16.2652 15.1288 16.5419 15.3564 16.775L20.9717 22.5H2.44141C1.79391 22.5 1.17292 22.7634 0.715072 23.2322C0.257219 23.7011 0 24.337 0 25ZM31.7383 0H7.32422C5.38172 0 3.51877 0.790177 2.14521 2.1967C0.771657 3.60322 0 5.51088 0 7.5V15C0 15.663 0.257219 16.2989 0.715072 16.7678C1.17292 17.2366 1.79391 17.5 2.44141 17.5C3.08891 17.5 3.70989 17.2366 4.16774 16.7678C4.62559 16.2989 4.88281 15.663 4.88281 15V7.5C4.88281 6.83696 5.14003 6.20107 5.59788 5.73223C6.05574 5.26339 6.67672 5 7.32422 5H31.7383C32.3858 5 33.0068 5.26339 33.4646 5.73223C33.9225 6.20107 34.1797 6.83696 34.1797 7.5V42.5C34.1797 43.163 33.9225 43.7989 33.4646 44.2678C33.0068 44.7366 32.3858 45 31.7383 45H7.32422C6.67672 45 6.05574 44.7366 5.59788 44.2678C5.14003 43.7989 4.88281 43.163 4.88281 42.5V35C4.88281 34.337 4.62559 33.7011 4.16774 33.2322C3.70989 32.7634 3.08891 32.5 2.44141 32.5C1.79391 32.5 1.17292 32.7634 0.715072 33.2322C0.257219 33.7011 0 34.337 0 35V42.5C0 44.4891 0.771657 46.3968 2.14521 47.8033C3.51877 49.2098 5.38172 50 7.32422 50H31.7383C33.6808 50 35.5437 49.2098 36.9173 47.8033C38.2908 46.3968 39.0625 44.4891 39.0625 42.5V7.5C39.0625 5.51088 38.2908 3.60322 36.9173 2.1967C35.5437 0.790177 33.6808 0 31.7383 0Z" fill="#ACACAC"/>
</svg>
