<svg width="57" height="50" viewBox="0 0 57 50" fill="none" xmlns="http://www.w3.org/2000/svg">
<path d="M51.7093 5.29683C48.693 2.30097 44.6945 0.472474 40.4362 0.141624C36.178 -0.189225 31.9406 0.999391 28.4896 3.49277C24.8691 0.825106 20.3627 -0.38454 15.8779 0.107424C11.3931 0.599388 7.26308 2.75642 4.31945 6.14414C1.37583 9.53186 -0.162718 13.8986 0.0136456 18.3651C0.190009 22.8316 2.06818 27.0659 5.26994 30.2155L22.9408 47.7488C24.4206 49.1915 26.4135 50 28.4896 50C30.5658 50 32.5587 49.1915 34.0385 47.7488L51.7093 30.2155C55.0317 26.9041 56.8965 22.425 56.8965 17.7562C56.8965 13.0874 55.0317 8.60824 51.7093 5.29683ZM47.6971 26.3255L30.0262 43.8306C29.8252 44.0317 29.5858 44.1914 29.3221 44.3004C29.0583 44.4093 28.7754 44.4654 28.4896 44.4654C28.2039 44.4654 27.9209 44.4093 27.6572 44.3004C27.3935 44.1914 27.1541 44.0317 26.953 43.8306L9.28217 26.2409C7.05057 23.9812 5.80095 20.9456 5.80095 17.7844C5.80095 14.6231 7.05057 11.5876 9.28217 9.3278C11.5562 7.10369 14.6232 5.85657 17.8188 5.85657C21.0145 5.85657 24.0814 7.10369 26.3555 9.3278C26.62 9.59201 26.9347 9.80171 27.2815 9.94482C27.6282 10.0879 28.0002 10.1616 28.3758 10.1616C28.7515 10.1616 29.1234 10.0879 29.4702 9.94482C29.8169 9.80171 30.1316 9.59201 30.3962 9.3278C32.6702 7.10369 35.7372 5.85657 38.9328 5.85657C42.1284 5.85657 45.1954 7.10369 47.4695 9.3278C49.7317 11.5579 51.0224 14.5771 51.0649 17.7384C51.1075 20.8997 49.8986 23.9518 47.6971 26.2409V26.3255Z" fill="#ACACAC"/>
</svg>
