<svg width="52" height="50" viewBox="0 0 52 50" fill="none" xmlns="http://www.w3.org/2000/svg">
<path d="M51.6079 1.82307C51.2985 1.10458 50.7064 0.533615 49.9613 0.235235C49.5947 0.0845638 49.201 0.00464585 48.8025 0H36.6051C35.7964 0 35.0208 0.309795 34.4489 0.861233C33.8771 1.41267 33.5558 2.16058 33.5558 2.94044C33.5558 3.72029 33.8771 4.4682 34.4489 5.01964C35.0208 5.57107 35.7964 5.88087 36.6051 5.88087H41.4536L34.1352 12.9379C29.814 9.81942 24.4282 8.39523 19.0618 8.95203C13.6954 9.50883 8.74706 12.0053 5.21281 15.9388C1.67855 19.8724 -0.179167 24.951 0.0136355 30.1522C0.206438 35.3535 2.43544 40.2912 6.25193 43.9714C10.0684 47.6515 15.189 49.8009 20.5829 49.9869C25.9768 50.1728 31.2434 48.3814 35.3227 44.9734C39.4019 41.5653 41.9908 36.7937 42.5683 31.619C43.1457 26.4443 41.6687 21.2508 38.4347 17.0839L45.7532 10.0269V14.7022C45.7532 15.482 46.0744 16.2299 46.6463 16.7814C47.2182 17.3328 47.9938 17.6426 48.8025 17.6426C49.6112 17.6426 50.3869 17.3328 50.9587 16.7814C51.5306 16.2299 51.8518 15.482 51.8518 14.7022V2.94044C51.847 2.55619 51.7642 2.17658 51.6079 1.82307ZM32.0311 39.6959C29.9112 41.7814 27.1952 43.2109 24.2294 43.8021C21.2636 44.3933 18.1824 44.1194 15.3787 43.0154C12.5749 41.9113 10.1757 40.0271 8.48687 37.603C6.79804 35.1789 5.89612 32.3247 5.89612 29.4044C5.89612 26.484 6.79804 23.6298 8.48687 21.2057C10.1757 18.7816 12.5749 16.8974 15.3787 15.7934C18.1824 14.6893 21.2636 14.4154 24.2294 15.0066C27.1952 15.5978 29.9112 17.0273 32.0311 19.1128C34.8247 21.8611 36.3895 25.556 36.3895 29.4044C36.3895 33.2527 34.8247 36.9476 32.0311 39.6959Z" fill="#ACACAC"/>
</svg>
