<svg width="38" height="50" viewBox="0 0 38 50" fill="none" xmlns="http://www.w3.org/2000/svg">
<path d="M18.5714 31.8182C21.0342 31.8182 23.396 30.8604 25.1374 29.1555C26.8788 27.4506 27.8571 25.1383 27.8571 22.7273V9.09091C27.8571 6.67985 26.8788 4.36754 25.1374 2.66267C23.396 0.95779 21.0342 0 18.5714 0C16.1087 0 13.7468 0.95779 12.0054 2.66267C10.264 4.36754 9.28571 6.67985 9.28571 9.09091V22.7273C9.28571 25.1383 10.264 27.4506 12.0054 29.1555C13.7468 30.8604 16.1087 31.8182 18.5714 31.8182ZM13.9286 9.09091C13.9286 7.88538 14.4177 6.72923 15.2884 5.87679C16.1591 5.02435 17.3401 4.54545 18.5714 4.54545C19.8028 4.54545 20.9837 5.02435 21.8544 5.87679C22.7251 6.72923 23.2143 7.88538 23.2143 9.09091V22.7273C23.2143 23.9328 22.7251 25.089 21.8544 25.9414C20.9837 26.7938 19.8028 27.2727 18.5714 27.2727C17.3401 27.2727 16.1591 26.7938 15.2884 25.9414C14.4177 25.089 13.9286 23.9328 13.9286 22.7273V9.09091ZM37.1429 22.7273C37.1429 22.1245 36.8983 21.5464 36.4629 21.1202C36.0276 20.694 35.4371 20.4545 34.8214 20.4545C34.2057 20.4545 33.6153 20.694 33.1799 21.1202C32.7446 21.5464 32.5 22.1245 32.5 22.7273C32.5 26.3439 31.0325 29.8123 28.4204 32.3696C25.8083 34.927 22.2655 36.3636 18.5714 36.3636C14.8773 36.3636 11.3346 34.927 8.72244 32.3696C6.11033 29.8123 4.64286 26.3439 4.64286 22.7273C4.64286 22.1245 4.39828 21.5464 3.96293 21.1202C3.52757 20.694 2.93711 20.4545 2.32143 20.4545C1.70575 20.4545 1.11528 20.694 0.679931 21.1202C0.244579 21.5464 0 22.1245 0 22.7273C0.00409916 27.1529 1.65685 31.4252 4.64842 34.7431C7.63999 38.061 11.765 40.1968 16.25 40.75V45.4545H11.6071C10.9915 45.4545 10.401 45.694 9.96564 46.1202C9.53029 46.5464 9.28571 47.1245 9.28571 47.7273C9.28571 48.33 9.53029 48.9081 9.96564 49.3343C10.401 49.7606 10.9915 50 11.6071 50H25.5357C26.1514 50 26.7419 49.7606 27.1772 49.3343C27.6126 48.9081 27.8571 48.33 27.8571 47.7273C27.8571 47.1245 27.6126 46.5464 27.1772 46.1202C26.7419 45.694 26.1514 45.4545 25.5357 45.4545H20.8929V40.75C25.3779 40.1968 29.5029 38.061 32.4944 34.7431C35.486 31.4252 37.1388 27.1529 37.1429 22.7273Z" fill="#ACACAC"/>
</svg>
