<svg width="53" height="53" viewBox="0 0 53 53" fill="none" xmlns="http://www.w3.org/2000/svg">
<path fill-rule="evenodd" clip-rule="evenodd" d="M36.0011 28.9979L36.0011 38.4941L36.0011 38.4968L36.0011 38.4995L36.0011 47.9957L17.0032 47.9957L17.0032 38.51L17.0032 38.4968L17.0032 38.4835L17.0032 28.9979L36.0011 28.9979ZM41.0011 47.9957L41.0011 40.9968L48 40.9968L48 45.2641C48 46.7727 46.777 47.9957 45.2685 47.9957L41.0011 47.9957ZM53 14.5076L53 38.4884L53 38.4968L53 38.5051L53 45.2641C53 49.5341 49.5385 52.9957 45.2685 52.9957L38.5011 52.9957L14.5032 52.9957L7.73585 52.9957C3.46584 52.9957 0.00431989 49.5341 0.00431626 45.2641L0.00431655 38.4968L0.00431708 26.4979L0.0043176 14.4989L0.0043179 7.73153C0.00431809 3.46152 3.46584 -2.57858e-07 7.73584 -3.09629e-07L45.2685 -3.37957e-07C49.5385 -2.70518e-07 53 3.46152 53 7.73153L53 14.4903C53 14.4932 53 14.4961 53 14.4989C53 14.5018 53 14.5047 53 14.5076ZM48 11.9989L48 7.73153C48 6.22295 46.777 5 45.2685 5L41.0011 5L41.0011 11.9989L48 11.9989ZM41.0011 16.9989L48 16.9989L48 23.9979L41.0011 23.9979L41.0011 16.9989ZM36.0011 14.5005C36.0011 14.5 36.0011 14.4995 36.0011 14.4989C36.0011 14.4984 36.0011 14.4979 36.0011 14.4974L36.0011 5L17.0032 5L17.0032 14.485L17.0032 14.4989L17.0032 14.5129L17.0032 23.9979L36.0011 23.9979L36.0011 14.5005ZM41.0011 35.9968L48 35.9968L48 28.9979L41.0011 28.9979L41.0011 35.9968ZM5.00432 7.73153C5.00432 6.22295 6.22726 5 7.73585 5L12.0032 5L12.0032 11.9989L5.00432 11.9989L5.00432 7.73153ZM5.00432 16.9989L12.0032 16.9989L12.0032 23.9979L5.00432 23.9979L5.00432 16.9989ZM5.00432 40.9968L5.00432 45.2641C5.00432 46.7727 6.22727 47.9957 7.73585 47.9957L12.0032 47.9957L12.0032 40.9968L5.00432 40.9968ZM12.0032 35.9968L5.00432 35.9968L5.00432 28.9979L12.0032 28.9979L12.0032 35.9968Z" fill="#ACACAC"/>
</svg>
