<svg width="18" height="30" viewBox="0 0 18 30" fill="none" xmlns="http://www.w3.org/2000/svg">
<path d="M16.8114 12.977L4.83311 0.846281C4.57048 0.578124 4.25803 0.36528 3.91377 0.220031C3.5695 0.074781 3.20025 0 2.82731 0C2.45437 0 2.08511 0.074781 1.74085 0.220031C1.39659 0.36528 1.08414 0.578124 0.821509 0.846281C0.295337 1.38233 0 2.10745 0 2.86329C0 3.61913 0.295337 4.34426 0.821509 4.8803L10.8223 15.0083L0.821509 25.1362C0.295337 25.6723 0 26.3974 0 27.1533C0 27.9091 0.295337 28.6342 0.821509 29.1703C1.08548 29.4354 1.39855 29.6452 1.74275 29.7876C2.08695 29.93 2.45551 30.0021 2.82731 30C3.19911 30.0021 3.56767 29.93 3.91187 29.7876C4.25607 29.6452 4.56913 29.4354 4.83311 29.1703L16.8114 17.0396C17.0762 16.7736 17.2864 16.4572 17.4298 16.1085C17.5732 15.7599 17.6471 15.386 17.6471 15.0083C17.6471 14.6306 17.5732 14.2566 17.4298 13.908C17.2864 13.5594 17.0762 13.2429 16.8114 12.977Z" fill="#ACACAC"/>
</svg>
