<svg width="41" height="50" viewBox="0 0 41 50" fill="none" xmlns="http://www.w3.org/2000/svg">
<path d="M35.5469 28.0186V20.0491C35.5432 16.4982 34.2666 13.0632 31.943 10.3523C29.6194 7.64142 26.3988 5.82965 22.8516 5.23783V2.50614C22.8516 1.84147 22.5841 1.20402 22.1079 0.734031C21.6317 0.264039 20.9859 0 20.3125 0C19.6391 0 18.9933 0.264039 18.5171 0.734031C18.0409 1.20402 17.7734 1.84147 17.7734 2.50614V5.23783C14.2262 5.82965 11.0056 7.64142 8.68203 10.3523C6.35844 13.0632 5.08177 16.4982 5.07812 20.0491V28.0186C3.59646 28.5357 2.31308 29.4924 1.40395 30.7577C0.494809 32.023 0.00441673 33.5348 0 35.086V40.0982C0 40.7629 0.267508 41.4004 0.743675 41.8704C1.21984 42.3403 1.86566 42.6044 2.53906 42.6044H10.5117C11.0964 44.728 12.3729 46.6027 14.1441 47.9393C15.9153 49.2759 18.0829 50 20.3125 50C22.5421 50 24.7097 49.2759 26.4809 47.9393C28.2521 46.6027 29.5286 44.728 30.1133 42.6044H38.0859C38.7593 42.6044 39.4052 42.3403 39.8813 41.8704C40.3575 41.4004 40.625 40.7629 40.625 40.0982V35.086C40.6206 33.5348 40.1302 32.023 39.2211 30.7577C38.3119 29.4924 37.0285 28.5357 35.5469 28.0186V28.0186ZM10.1562 20.0491C10.1562 17.3904 11.2263 14.8407 13.1309 12.9607C15.0356 11.0807 17.6189 10.0246 20.3125 10.0246C23.0061 10.0246 25.5894 11.0807 27.4941 12.9607C29.3987 14.8407 30.4687 17.3904 30.4688 20.0491V27.5675H10.1562V20.0491ZM20.3125 45.1105C19.4263 45.1052 18.5569 44.8711 17.7908 44.4315C17.0246 43.9918 16.3884 43.3619 15.9453 42.6044H24.6797C24.2366 43.3619 23.6004 43.9918 22.8342 44.4315C22.0681 44.8711 21.1987 45.1052 20.3125 45.1105ZM35.5469 37.5921H5.07812V35.086C5.07812 34.4213 5.34563 33.7838 5.8218 33.3139C6.29797 32.8439 6.94379 32.5798 7.61719 32.5798H33.0078C33.6812 32.5798 34.327 32.8439 34.8032 33.3139C35.2794 33.7838 35.5469 34.4213 35.5469 35.086V37.5921Z" fill="#ACACAC"/>
</svg>
