<svg width="50" height="40" viewBox="0 0 50 40" fill="none" xmlns="http://www.w3.org/2000/svg">
<path d="M26.0674 0.200929C25.6616 0.0292113 25.2164 -0.0341157 24.7773 0.0174108C24.3382 0.0689372 23.921 0.233472 23.5682 0.494221L11.6216 9.73294H2.49928C1.83643 9.73294 1.20073 9.99044 0.732021 10.4488C0.263316 10.9072 0 11.5288 0 12.177V26.8417C0 27.4899 0.263316 28.1116 0.732021 28.5699C1.20073 29.0283 1.83643 29.2858 2.49928 29.2858H11.6216L23.4432 38.5245C23.8829 38.8695 24.429 39.059 24.9928 39.0622C25.3661 39.0682 25.7352 38.9843 26.0674 38.8178C26.4928 38.6197 26.8521 38.3081 27.1042 37.9189C27.3563 37.5297 27.4907 37.0788 27.492 36.6181V2.40062C27.4907 1.93994 27.3563 1.48901 27.1042 1.09982C26.8521 0.710626 26.4928 0.39902 26.0674 0.200929ZM22.4935 31.5344L14.0459 24.9353C13.6062 24.5903 13.0601 24.4008 12.4964 24.3976H4.99855V14.6211H12.4964C13.0601 14.618 13.6062 14.4285 14.0459 14.0834L22.4935 7.48436V31.5344ZM44.762 19.5094L49.2607 15.1344C49.4937 14.9065 49.6786 14.636 49.8047 14.3382C49.9308 14.0405 49.9957 13.7214 49.9957 13.3991C49.9957 13.0768 49.9308 12.7577 49.8047 12.4599C49.6786 12.1622 49.4937 11.8917 49.2607 11.6638C49.0277 11.4359 48.751 11.2551 48.4466 11.1318C48.1421 11.0085 47.8158 10.945 47.4862 10.945C47.1567 10.945 46.8304 11.0085 46.5259 11.1318C46.2214 11.2551 45.9448 11.4359 45.7118 11.6638L41.238 16.0632L36.7643 11.6638C36.2937 11.2035 35.6554 10.945 34.9899 10.945C34.3243 10.945 33.686 11.2035 33.2154 11.6638C32.7447 12.124 32.4804 12.7482 32.4804 13.3991C32.4804 14.05 32.7447 14.6742 33.2154 15.1344L37.7141 19.5094L33.2154 23.8843C32.9811 24.1115 32.7952 24.3818 32.6683 24.6797C32.5414 24.9775 32.4761 25.297 32.4761 25.6196C32.4761 25.9423 32.5414 26.2617 32.6683 26.5596C32.7952 26.8574 32.9811 27.1277 33.2154 27.3549C33.4477 27.584 33.7241 27.7658 34.0287 27.8899C34.3333 28.014 34.6599 28.0779 34.9899 28.0779C35.3198 28.0779 35.6465 28.014 35.951 27.8899C36.2556 27.7658 36.532 27.584 36.7643 27.3549L41.238 22.9555L45.7118 27.3549C45.9441 27.584 46.2205 27.7658 46.5251 27.8899C46.8296 28.014 47.1563 28.0779 47.4862 28.0779C47.8162 28.0779 48.1428 28.014 48.4474 27.8899C48.752 27.7658 49.0284 27.584 49.2607 27.3549C49.495 27.1277 49.6809 26.8574 49.8078 26.5596C49.9347 26.2617 50 25.9423 50 25.6196C50 25.297 49.9347 24.9775 49.8078 24.6797C49.6809 24.3818 49.495 24.1115 49.2607 23.8843L44.762 19.5094Z" fill="#ACACAC"/>
</svg>
