<svg width="44" height="50" viewBox="0 0 44 50" fill="none" xmlns="http://www.w3.org/2000/svg">
<path d="M38.8915 26.4625L23.1526 42.2162C21.0893 44.0487 18.4033 45.0241 15.6441 44.9429C12.8849 44.8618 10.261 43.7302 8.30912 41.7796C6.35723 39.829 5.22486 37.2069 5.14364 34.4495C5.06241 31.6922 6.03848 29.008 7.87217 26.9461L28.2461 6.58589C29.4625 5.43121 31.0761 4.7874 32.7538 4.7874C34.4315 4.7874 36.0452 5.43121 37.2615 6.58589C38.4467 7.7861 39.1111 9.40443 39.1111 11.0906C39.1111 12.7767 38.4467 14.3951 37.2615 15.5953L19.689 33.1305C19.5151 33.3177 19.306 33.4688 19.0737 33.5752C18.8413 33.6816 18.5903 33.7412 18.3349 33.7507C17.8191 33.7697 17.3168 33.5833 16.9386 33.2323C16.7513 33.0585 16.6001 32.8496 16.4936 32.6174C16.3871 32.3852 16.3274 32.1343 16.318 31.8791C16.2989 31.3636 16.4855 30.8617 16.8367 30.4837L29.9015 17.4531C30.381 16.9739 30.6504 16.3239 30.6504 15.6462C30.6504 14.9684 30.381 14.3184 29.9015 13.8392C29.4219 13.36 28.7715 13.0907 28.0933 13.0907C27.4151 13.0907 26.7647 13.36 26.2851 13.8392L13.2203 26.9206C12.5666 27.5689 12.0477 28.34 11.6936 29.1896C11.3395 30.0392 11.1572 30.9504 11.1572 31.8707C11.1572 32.791 11.3395 33.7023 11.6936 34.5518C12.0477 35.4014 12.5666 36.1726 13.2203 36.8208C14.5558 38.092 16.3294 38.8011 18.1737 38.8011C20.0181 38.8011 21.7917 38.092 23.1271 36.8208L40.6742 19.2601C42.6985 17.0891 43.8006 14.2176 43.7482 11.2506C43.6958 8.28357 42.4931 5.45271 40.3934 3.35439C38.2936 1.25608 35.4609 0.0541336 32.4918 0.00178427C29.5228 -0.0505651 26.6494 1.05077 24.4769 3.07376L4.103 23.434C1.35557 26.4748 -0.111786 30.4578 0.00665015 34.5531C0.125087 38.6484 1.82018 42.54 4.73876 45.4173C7.65734 48.2945 11.5743 49.9354 15.6736 49.9981C19.7728 50.0608 23.7382 48.5405 26.7435 45.7538L42.5078 30.0256C42.7453 29.7883 42.9336 29.5066 43.0621 29.1965C43.1907 28.8865 43.2568 28.5542 43.2568 28.2186C43.2568 27.883 43.1907 27.5507 43.0621 27.2407C42.9336 26.9306 42.7453 26.6489 42.5078 26.4116C42.2704 26.1743 41.9885 25.9861 41.6782 25.8577C41.368 25.7293 41.0355 25.6632 40.6996 25.6632C40.3638 25.6632 40.0313 25.7293 39.7211 25.8577C39.4108 25.9861 39.1289 26.1743 38.8915 26.4116V26.4625Z" fill="#ACACAC"/>
</svg>
