<svg width="50" height="50" viewBox="0 0 50 50" fill="none" xmlns="http://www.w3.org/2000/svg">
<path d="M25 10C24.337 10 23.7011 10.2634 23.2322 10.7322C22.7634 11.2011 22.5 11.837 22.5 12.5V23.46L16.425 26.5175C16.1214 26.6586 15.8492 26.8592 15.6246 27.1075C15.4001 27.3558 15.2276 27.6467 15.1176 27.9629C15.0075 28.279 14.9621 28.6141 14.984 28.9482C15.0059 29.2823 15.0947 29.6085 15.2451 29.9076C15.3955 30.2068 15.6044 30.4726 15.8595 30.6894C16.1146 30.9063 16.4106 31.0696 16.7301 31.1699C17.0495 31.2701 17.3858 31.3052 17.7191 31.273C18.0523 31.2408 18.3757 31.142 18.67 30.9825L26.1225 27.2325C26.5366 27.0247 26.8847 26.7059 27.128 26.3117C27.3712 25.9174 27.5 25.4633 27.5 25V12.5C27.5 11.837 27.2366 11.2011 26.7678 10.7322C26.2989 10.2634 25.663 10 25 10ZM25 0C20.0555 0 15.222 1.46622 11.1108 4.21326C6.99953 6.96029 3.79521 10.8648 1.90302 15.4329C0.0108321 20.0011 -0.484251 25.0277 0.480379 29.8772C1.44501 34.7268 3.82603 39.1813 7.32234 42.6777C10.8187 46.174 15.2732 48.555 20.1228 49.5196C24.9723 50.4842 29.9989 49.9892 34.5671 48.097C39.1352 46.2048 43.0397 43.0005 45.7867 38.8892C48.5338 34.778 50 29.9445 50 25C49.9927 18.3718 47.3565 12.0172 42.6696 7.33037C37.9828 2.64354 31.6282 0.00727899 25 0ZM25 45C21.0444 45 17.1776 43.827 13.8886 41.6294C10.5996 39.4318 8.03617 36.3082 6.52242 32.6537C5.00867 28.9991 4.6126 24.9778 5.38431 21.0982C6.15601 17.2186 8.06082 13.6549 10.8579 10.8579C13.6549 8.06081 17.2186 6.156 21.0982 5.38429C24.9778 4.61259 28.9992 5.00866 32.6537 6.52241C36.3082 8.03616 39.4318 10.5996 41.6294 13.8886C43.827 17.1776 45 21.0444 45 25C44.9934 30.3023 42.8841 35.3855 39.1348 39.1348C35.3855 42.8841 30.3023 44.9934 25 45Z" fill="#ACACAC"/>
</svg>
