<svg width="35" height="50" viewBox="0 0 35 50" fill="none" xmlns="http://www.w3.org/2000/svg">
<path d="M18.9308 35.725L18.5625 35.425C18.4256 35.3304 18.277 35.2547 18.1205 35.2L17.6786 35C17.2804 34.9152 16.8677 34.9325 16.4777 35.0504C16.0877 35.1682 15.7326 35.3828 15.4442 35.675C15.2273 35.918 15.0529 36.197 14.9286 36.5C14.7428 36.9555 14.6934 37.4568 14.7868 37.9408C14.8802 38.4248 15.112 38.8698 15.4533 39.2199C15.7945 39.57 16.2298 39.8095 16.7044 39.9083C17.179 40.0071 17.6718 39.9607 18.1205 39.775C18.4139 39.63 18.6865 39.445 18.9308 39.225C19.2715 38.8734 19.5023 38.427 19.5941 37.942C19.6858 37.4571 19.6345 36.9553 19.4464 36.5C19.324 36.2109 19.1491 35.948 18.9308 35.725ZM27.0089 0H7.36607C5.41247 0 3.53888 0.790177 2.15747 2.1967C0.776066 3.60322 0 5.51088 0 7.5V42.5C0 44.4891 0.776066 46.3968 2.15747 47.8033C3.53888 49.2098 5.41247 50 7.36607 50H27.0089C28.9625 50 30.8361 49.2098 32.2175 47.8033C33.5989 46.3968 34.375 44.4891 34.375 42.5V7.5C34.375 5.51088 33.5989 3.60322 32.2175 2.1967C30.8361 0.790177 28.9625 0 27.0089 0ZM29.4643 42.5C29.4643 43.163 29.2056 43.7989 28.7451 44.2678C28.2847 44.7366 27.6601 45 27.0089 45H7.36607C6.71487 45 6.09034 44.7366 5.62987 44.2678C5.1694 43.7989 4.91071 43.163 4.91071 42.5V7.5C4.91071 6.83696 5.1694 6.20107 5.62987 5.73223C6.09034 5.26339 6.71487 5 7.36607 5H27.0089C27.6601 5 28.2847 5.26339 28.7451 5.73223C29.2056 6.20107 29.4643 6.83696 29.4643 7.5V42.5Z" fill="#ACACAC"/>
</svg>
