<svg width="50" height="50" viewBox="0 0 50 50" fill="none" xmlns="http://www.w3.org/2000/svg">
<path d="M35 20.675L22.5 13.45C21.7403 13.0114 20.8785 12.7803 20.0013 12.7801C19.124 12.7799 18.2622 13.0105 17.5022 13.4487C16.7423 13.8869 16.111 14.5174 15.6718 15.2768C15.2326 16.0362 15.0009 16.8977 15 17.775V32.225C15.0009 33.1018 15.2324 33.963 15.6712 34.7221C16.11 35.4812 16.7407 36.1116 17.5 36.55C18.2601 36.9888 19.1223 37.2199 20 37.2199C20.8777 37.2199 21.7399 36.9888 22.5 36.55L35 29.325C35.7577 28.8855 36.3866 28.2546 36.8238 27.4956C37.261 26.7365 37.4911 25.8759 37.4911 25C37.4911 24.124 37.261 23.2635 36.8238 22.5044C36.3866 21.7454 35.7577 21.1145 35 20.675ZM32.5 25L20 32.225V17.775L32.5 25ZM25 0C20.0555 0 15.222 1.46622 11.1108 4.21326C6.99953 6.96029 3.79521 10.8648 1.90302 15.4329C0.0108321 20.0011 -0.484251 25.0277 0.480379 29.8772C1.44501 34.7268 3.82603 39.1813 7.32234 42.6777C10.8187 46.174 15.2732 48.555 20.1228 49.5196C24.9723 50.4842 29.9989 49.9892 34.5671 48.097C39.1352 46.2048 43.0397 43.0005 45.7867 38.8892C48.5338 34.778 50 29.9445 50 25C50 21.7169 49.3534 18.466 48.097 15.4329C46.8406 12.3998 44.9991 9.64379 42.6777 7.32233C40.3562 5.00086 37.6002 3.15938 34.5671 1.90301C31.534 0.646644 28.2831 0 25 0ZM25 45C21.0444 45 17.1776 43.827 13.8886 41.6294C10.5996 39.4318 8.03617 36.3082 6.52242 32.6537C5.00867 28.9991 4.6126 24.9778 5.38431 21.0982C6.15601 17.2186 8.06082 13.6549 10.8579 10.8579C13.6549 8.06081 17.2186 6.156 21.0982 5.38429C24.9778 4.61259 28.9992 5.00866 32.6537 6.52241C36.3082 8.03616 39.4318 10.5996 41.6294 13.8886C43.827 17.1776 45 21.0444 45 25C45 30.3043 42.8929 35.3914 39.1421 39.1421C35.3914 42.8929 30.3043 45 25 45Z" fill="#ACACAC"/>
</svg>
