<svg width="49" height="50" viewBox="0 0 49 50" fill="none" xmlns="http://www.w3.org/2000/svg">
<path d="M44.4564 18.2909L10.5189 0.785897C9.17953 0.0982233 7.66719 -0.146593 6.18804 0.0848258C4.70889 0.316245 3.33492 1.01264 2.25346 2.07906C1.172 3.14548 0.43567 4.53002 0.144874 6.04393C-0.145923 7.55784 0.0229617 9.12742 0.628501 10.5387L6.44637 23.9675C6.57837 24.2922 6.64636 24.6408 6.64636 24.9928C6.64636 25.3449 6.57837 25.6935 6.44637 26.0181L0.628501 39.447C0.13568 40.5891 -0.072659 41.8401 0.022418 43.0864C0.117495 44.3327 0.512974 45.5348 1.17291 46.5833C1.83285 47.6318 2.73633 48.4936 3.80123 49.0903C4.86614 49.687 6.05871 49.9997 7.27056 50C8.40561 49.9883 9.52375 49.7149 10.5431 49.1998L44.4807 31.6948C45.6845 31.07 46.6963 30.1126 47.4034 28.9292C48.1104 27.7458 48.4848 26.383 48.4848 24.9928C48.4848 23.6027 48.1104 22.2399 47.4034 21.0565C46.6963 19.8731 45.6845 18.9156 44.4807 18.2909H44.4564ZM42.299 27.2185L8.36141 44.7235C7.91577 44.9442 7.41536 45.0191 6.92728 44.9382C6.4392 44.8572 5.98678 44.6242 5.63068 44.2705C5.27459 43.9167 5.03185 43.4592 4.93501 42.9591C4.83816 42.459 4.89185 41.9403 5.08886 41.4726L10.8825 28.0437C10.9575 27.8644 11.0222 27.6807 11.0764 27.4936H27.7785C28.4215 27.4936 29.038 27.2301 29.4926 26.7611C29.9473 26.2921 30.2027 25.6561 30.2027 24.9928C30.2027 24.3296 29.9473 23.6935 29.4926 23.2246C29.038 22.7556 28.4215 22.4921 27.7785 22.4921H11.0764C11.0222 22.305 10.9575 22.1213 10.8825 21.942L5.08886 8.51311C4.89185 8.04539 4.83816 7.5267 4.93501 7.02661C5.03185 6.52652 5.27459 6.06892 5.63068 5.71518C5.98678 5.36144 6.4392 5.12847 6.92728 5.0475C7.41536 4.96653 7.91577 5.04144 8.36141 5.26218L42.299 22.7672C42.696 22.9771 43.0293 23.2959 43.262 23.6886C43.4947 24.0813 43.6178 24.5326 43.6178 24.9928C43.6178 25.4531 43.4947 25.9044 43.262 26.2971C43.0293 26.6898 42.696 27.0086 42.299 27.2185Z" fill="#ACACAC"/>
</svg>
