<svg width="49" height="50" viewBox="0 0 49 50" fill="none" xmlns="http://www.w3.org/2000/svg">
<path d="M46.8364 18.875L42.2545 17.3L44.4121 12.85C44.6308 12.3842 44.704 11.8599 44.6215 11.3494C44.539 10.839 44.3049 10.3675 43.9515 10L38.7879 4.67501C38.4297 4.30522 37.9681 4.06052 37.468 3.97532C36.9679 3.89012 36.4545 3.9687 36 4.20001L31.6848 6.42501L30.1576 1.70001C29.9963 1.20749 29.6901 0.779072 29.2817 0.474378C28.8732 0.169684 28.3829 0.00386918 27.8788 8.33384e-06H20.6061C20.0978 -0.00134457 19.602 0.162056 19.1888 0.467113C18.7755 0.772171 18.4657 1.20346 18.303 1.70001L16.7758 6.42501L12.4606 4.20001C12.0089 3.97446 11.5005 3.89902 11.0055 3.9841C10.5105 4.06918 10.0533 4.31058 9.69698 4.67501L4.53334 10C4.17476 10.3694 3.93748 10.8454 3.85486 11.3611C3.77224 11.8768 3.84843 12.4063 4.07273 12.875L6.23031 17.325L1.64849 18.9C1.1709 19.0663 0.755464 19.3821 0.460003 19.8033C0.164542 20.2245 0.00375193 20.7302 8.0813e-06 21.25V28.75C-0.00130383 29.2741 0.157145 29.7854 0.452958 30.2116C0.748771 30.6378 1.16699 30.9573 1.64849 31.125L6.23031 32.7L4.07273 37.15C3.85402 37.6158 3.78086 38.1401 3.86337 38.6506C3.94587 39.161 4.17996 39.6325 4.53334 40L9.69698 45.325C10.0552 45.6948 10.5168 45.9395 11.0169 46.0247C11.5169 46.1099 12.0303 46.0313 12.4849 45.8L16.8 43.575L18.3273 48.3C18.4899 48.7965 18.7998 49.2278 19.213 49.5329C19.6263 49.8379 20.1221 50.0013 20.6303 50H27.903C28.4113 50.0013 28.907 49.8379 29.3203 49.5329C29.7336 49.2278 30.0434 48.7965 30.2061 48.3L31.7333 43.575L36.0485 45.8C36.4973 46.0199 37.0007 46.0922 37.4907 46.0072C37.9807 45.9223 38.4335 45.6841 38.7879 45.325L43.9515 40C44.3101 39.6306 44.5474 39.1546 44.63 38.6389C44.7126 38.1232 44.6364 37.5937 44.4121 37.125L42.2545 32.675L46.8364 31.1C47.314 30.9337 47.7294 30.6179 48.0248 30.1967C48.3203 29.7755 48.4811 29.2698 48.4848 28.75V21.25C48.4862 20.7259 48.3277 20.2146 48.0319 19.7884C47.7361 19.3622 47.3179 19.0427 46.8364 18.875V18.875ZM43.6364 26.95L40.7273 27.95C40.0583 28.1738 39.4446 28.5449 38.9286 29.0378C38.4127 29.5306 38.0068 30.1332 37.7393 30.8039C37.4718 31.4747 37.3489 32.1974 37.3793 32.9219C37.4096 33.6465 37.5925 34.3556 37.9151 35L39.297 37.85L36.6303 40.6L33.9394 39.1C33.3177 38.7806 32.6367 38.6027 31.9426 38.5782C31.2484 38.5538 30.5573 38.6835 29.9159 38.9585C29.2746 39.2335 28.698 39.6473 28.2253 40.1721C27.7525 40.6968 27.3946 41.3202 27.1758 42L26.2061 45H22.3515L21.3818 42C21.1648 41.3101 20.8049 40.6772 20.327 40.1451C19.8491 39.6131 19.2647 39.1945 18.6144 38.9186C17.964 38.6428 17.2632 38.5161 16.5605 38.5474C15.8579 38.5787 15.1703 38.7673 14.5455 39.1L11.7818 40.525L9.11516 37.775L10.5697 35C10.8924 34.3556 11.0752 33.6465 11.1056 32.9219C11.1359 32.1974 11.0131 31.4747 10.7456 30.8039C10.478 30.1332 10.0722 29.5306 9.55624 29.0378C9.04028 28.5449 8.42654 28.1738 7.75758 27.95L4.84849 26.95V23.05L7.75758 22.05C8.42654 21.8262 9.04028 21.4551 9.55624 20.9622C10.0722 20.4694 10.478 19.8668 10.7456 19.1961C11.0131 18.5253 11.1359 17.8026 11.1056 17.0781C11.0752 16.3535 10.8924 15.6444 10.5697 15L9.18788 12.225L11.8546 9.47501L14.5455 10.9C15.1703 11.2327 15.8579 11.4213 16.5605 11.4526C17.2632 11.4839 17.964 11.3572 18.6144 11.0814C19.2647 10.8055 19.8491 10.387 20.327 9.85487C20.8049 9.32279 21.1648 8.68986 21.3818 8.00001L22.3515 5.00001H26.1333L27.103 8.00001C27.32 8.68986 27.6799 9.32279 28.1578 9.85487C28.6357 10.387 29.2201 10.8055 29.8705 11.0814C30.5209 11.3572 31.2217 11.4839 31.9243 11.4526C32.6269 11.4213 33.3145 11.2327 33.9394 10.9L36.703 9.47501L39.3697 12.225L37.9151 15C37.6054 15.6411 37.4329 16.3434 37.4092 17.0592C37.3855 17.7751 37.5113 18.4878 37.7779 19.1492C38.0446 19.8106 38.4459 20.4052 38.9548 20.8927C39.4636 21.3802 40.0681 21.7493 40.7273 21.975L43.6364 22.975V26.95ZM24.2424 15C22.3245 15 20.4497 15.5865 18.8551 16.6853C17.2604 17.7841 16.0175 19.3459 15.2836 21.1732C14.5497 23.0004 14.3576 25.0111 14.7318 26.9509C15.1059 28.8907 16.0295 30.6725 17.3856 32.0711C18.7418 33.4696 20.4696 34.422 22.3506 34.8079C24.2317 35.1937 26.1814 34.9957 27.9533 34.2388C29.7252 33.4819 31.2396 32.2002 32.3052 30.5557C33.3707 28.9112 33.9394 26.9778 33.9394 25C33.9394 22.3478 32.9178 19.8043 31.0992 17.9289C29.2807 16.0536 26.8142 15 24.2424 15V15ZM24.2424 30C23.2835 30 22.3461 29.7068 21.5488 29.1573C20.7514 28.6079 20.13 27.827 19.763 26.9134C19.396 25.9998 19.3 24.9945 19.4871 24.0245C19.6742 23.0546 20.136 22.1637 20.814 21.4645C21.4921 20.7652 22.356 20.289 23.2965 20.0961C24.237 19.9031 25.2119 20.0022 26.0979 20.3806C26.9838 20.759 27.741 21.3999 28.2738 22.2222C28.8065 23.0444 29.0909 24.0111 29.0909 25C29.0909 26.3261 28.5801 27.5979 27.6708 28.5355C26.7616 29.4732 25.5283 30 24.2424 30Z" fill="#ACACAC"/>
</svg>
