<svg width="50" height="40" viewBox="0 0 50 40" fill="none" xmlns="http://www.w3.org/2000/svg">
<path d="M26.0707 0.200929C25.6648 0.0292113 25.2196 -0.0341157 24.7804 0.0174108C24.3413 0.0689372 23.924 0.233472 23.5711 0.494221L11.6231 9.73294H2.49959C1.83666 9.73294 1.20088 9.99044 0.732113 10.4488C0.263349 10.9072 0 11.5288 0 12.177V26.8417C0 27.4899 0.263349 28.1116 0.732113 28.5699C1.20088 29.0283 1.83666 29.2858 2.49959 29.2858H11.6231L23.4462 38.5245C23.8859 38.8695 24.4321 39.059 24.9959 39.0622C25.3693 39.0682 25.7384 38.9843 26.0707 38.8178C26.4961 38.6197 26.8555 38.3081 27.1076 37.9189C27.3597 37.5297 27.4942 37.0788 27.4955 36.6181V2.40062C27.4942 1.93994 27.3597 1.48901 27.1076 1.09982C26.8555 0.710626 26.4961 0.39902 26.0707 0.200929ZM22.4963 31.5344L14.0477 24.9353C13.6079 24.5903 13.0618 24.4008 12.498 24.3976H4.99918V14.6211H12.498C13.0618 14.618 13.6079 14.4285 14.0477 14.0834L22.4963 7.48436V31.5344ZM44.1428 5.67572C43.6721 5.21549 43.0337 4.95693 42.3681 4.95693C41.7024 4.95693 41.064 5.21549 40.5934 5.67572C40.1227 6.13596 39.8583 6.76017 39.8583 7.41104C39.8583 8.06191 40.1227 8.68612 40.5934 9.14635C42.0653 10.5833 43.2154 12.304 43.9706 14.1989C44.7259 16.0939 45.0698 18.1218 44.9804 20.1537C44.8911 22.1856 44.3705 24.1771 43.4517 26.0017C42.533 27.8263 41.2361 29.4441 39.6435 30.7522C39.2567 31.0756 38.9801 31.5067 38.8506 31.9879C38.7211 32.4691 38.7449 32.9775 38.9188 33.4451C39.0927 33.9128 39.4085 34.3174 39.8238 34.6048C40.2392 34.8923 40.7344 35.049 41.2433 35.0539C41.8273 35.055 42.3933 34.8561 42.843 34.4917C44.97 32.7498 46.703 30.5941 47.9318 28.1618C49.1606 25.7295 49.8583 23.0738 49.9806 20.3635C50.1028 17.6532 49.6469 14.9478 48.6419 12.4191C47.6369 9.89047 46.1047 7.59399 44.1428 5.67572ZM37.0689 12.5925C36.8359 12.3647 36.5592 12.1839 36.2547 12.0606C35.9502 11.9372 35.6238 11.8737 35.2942 11.8737C34.9646 11.8737 34.6383 11.9372 34.3338 12.0606C34.0293 12.1839 33.7526 12.3647 33.5195 12.5925C33.2865 12.8204 33.1016 13.091 32.9755 13.3887C32.8493 13.6865 32.7844 14.0056 32.7844 14.3279C32.7844 14.6501 32.8493 14.9693 32.9755 15.267C33.1016 15.5647 33.2865 15.8353 33.5195 16.0632C34.4583 16.9757 34.9887 18.215 34.9943 19.5094C34.9949 20.2214 34.8364 20.9251 34.5298 21.571C34.2233 22.2169 33.7761 22.7895 33.2196 23.2488C32.9665 23.454 32.7572 23.706 32.6039 23.9904C32.4505 24.2747 32.3561 24.5859 32.3259 24.906C32.2957 25.2261 32.3304 25.5489 32.428 25.8559C32.5256 26.1629 32.6842 26.4481 32.8946 26.695C33.1062 26.9407 33.3653 27.1433 33.657 27.291C33.9487 27.4387 34.2673 27.5288 34.5947 27.556C34.922 27.5833 35.2516 27.5472 35.5646 27.4497C35.8777 27.3523 36.168 27.1955 36.419 26.9883C37.5366 26.0721 38.4357 24.9278 39.0532 23.6358C39.6707 22.3439 39.9916 20.9354 39.9935 19.5094C39.9793 16.9189 38.9298 14.4365 37.0689 12.5925Z" fill="#ACACAC"/>
</svg>
