<svg width="313" height="262" viewBox="0 0 313 262" fill="none" xmlns="http://www.w3.org/2000/svg">
<path d="M68.8831 227.231C68.8831 227.231 13.5133 188.983 37.6524 122.642C53.686 78.5835 119.079 61.8986 134.298 32.4741C149.517 3.04968 218.13 -19.7274 251.352 25.812C284.573 71.3514 282.079 178.301 202.74 225.04C202.725 225.054 129.723 275.502 68.8831 227.231Z" fill="#FFECD0"/>
<path d="M3.60022 159.6L1.08193 161.219C0.484391 161.603 0.311394 162.399 0.695523 162.996L19.7865 192.693C20.1707 193.291 20.9665 193.464 21.564 193.08L24.0823 191.461C24.6798 191.077 24.8528 190.281 24.4687 189.683L5.37767 159.986C4.99354 159.389 4.19776 159.216 3.60022 159.6Z" fill="#9E9E9E"/>
<path d="M21.5523 206.319C21.5523 206.319 10.7596 195.659 7.5618 190.197C4.66007 185.237 5.82224 176.643 8.05036 173.512C8.10555 173.439 8.18127 173.384 8.26782 173.354C8.35437 173.325 8.4478 173.322 8.5361 173.345C8.62441 173.369 8.70356 173.419 8.76342 173.488C8.82327 173.557 8.86108 173.643 8.87201 173.734C9.24999 176.798 9.90912 179.821 10.841 182.765C10.8626 182.836 10.9067 182.899 10.9667 182.943C11.0267 182.988 11.0994 183.012 11.1742 183.012C11.2489 183.012 11.3217 182.988 11.3817 182.943C11.4416 182.899 11.4857 182.836 11.5073 182.765C12.1291 180.418 13.7946 174.881 16.415 171.491C16.4907 171.396 16.5947 171.328 16.7117 171.296C16.8288 171.265 16.9529 171.271 17.066 171.315C17.1791 171.359 17.2753 171.437 17.3406 171.539C17.4059 171.642 17.4369 171.762 17.4292 171.883C17.2219 174.689 16.837 180.322 16.8888 182.987C16.8645 184.423 17.2015 185.843 17.8689 187.116C18.5363 188.389 19.5127 189.473 20.7084 190.271C23.7286 192.491 24.2838 196.311 25.0832 203.772L21.5523 206.319Z" fill="white"/>
<path d="M69.4308 191.499C73.2431 192.884 81.3931 194.964 93.1185 193.365V171.01H77.381C77.381 171.01 78.6764 182.972 69.4308 191.499Z" fill="white"/>
<path d="M69.4309 191.499C69.3272 191.596 69.231 191.699 69.12 191.795C60.7405 199.257 54.1968 216.283 58.1941 232.035C58.1941 232.035 40.606 223.774 25.1499 200.856L18.7542 206.719C18.7542 206.719 28.6956 245.478 57.8165 261.134C59.1316 261.843 60.634 262.127 62.1173 261.948C67.6025 261.311 81.7632 258.624 93.1037 247.491V193.335C81.3931 194.964 73.2431 192.884 69.4309 191.499Z" fill="#FFC875"/>
<path d="M60.8096 121.746C65.8632 119.727 71.5119 119.798 76.5132 121.944C81.5145 124.089 85.4585 128.134 87.4778 133.188L92.6744 146.193C93.6765 148.696 94.1756 151.371 94.1431 154.067C94.1107 156.763 93.5474 159.426 92.4854 161.904C91.4234 164.381 89.8836 166.626 87.9538 168.508C86.0241 170.391 83.7423 171.875 81.2388 172.875L75.8084 175.045C72.1914 176.49 68.1484 176.439 64.5689 174.904C60.9893 173.368 58.1664 170.473 56.7212 166.856L49.3603 148.434C47.341 143.38 47.412 137.732 49.5576 132.73C51.7032 127.729 55.7477 123.785 60.8013 121.766L60.8096 121.746Z" fill="white"/>
<path d="M48.5117 145.871C48.5117 145.871 60.3555 140.453 64.8562 133.287C64.8562 133.287 70.7189 150.786 80.8453 164.644C90.9718 178.501 92.8372 196.355 83.5102 210.479C74.1832 224.603 66.7216 238.46 72.5843 246.751C78.4469 255.041 87.7739 257.677 95.7685 252.347V127.839C95.7685 127.839 86.5303 115.995 71.0742 117.624C55.618 119.252 44.4552 133.08 48.5117 145.871Z" fill="#EF4765"/>
<path d="M53.8415 158.833L52.4425 167.345C52.4075 167.557 52.4253 167.774 52.4944 167.977C52.5634 168.18 52.6816 168.363 52.8383 168.51C52.995 168.656 53.1855 168.762 53.3928 168.817C53.6001 168.872 53.8178 168.875 54.0266 168.826L59.3637 167.56L53.8415 158.833Z" fill="white"/>
<path d="M74.805 159.195C77.356 159.195 79.4241 157.127 79.4241 154.576C79.4241 152.025 77.356 149.957 74.805 149.957C72.2539 149.957 70.1859 152.025 70.1859 154.576C70.1859 157.127 72.2539 159.195 74.805 159.195Z" fill="white"/>
<path d="M56.9579 154.887C56.9579 154.887 61.5918 154.939 63.5238 150.808" stroke="#EF4765" stroke-miterlimit="10" stroke-linecap="round"/>
<path d="M62.1099 172.564C62.1099 172.564 65.7001 172.608 67.1954 169.411" stroke="#EF4765" stroke-miterlimit="10" stroke-linecap="round"/>
<path d="M66.2848 164.532C68.0304 164.532 69.4456 163.117 69.4456 161.372C69.4456 159.626 68.0304 158.211 66.2848 158.211C64.5391 158.211 63.124 159.626 63.124 161.372C63.124 163.117 64.5391 164.532 66.2848 164.532Z" fill="#FF9BAD"/>
<path d="M235.882 70.0312L230.466 67.8669C225.412 65.8476 221.368 61.9036 219.222 56.9023C217.076 51.901 217.005 46.2523 219.025 41.1987L224.221 28.1931C225.221 25.6909 226.704 23.41 228.585 21.4808C230.467 19.5516 232.71 18.0119 235.186 16.9495C237.662 15.8871 240.324 15.3228 243.018 15.289C245.713 15.2551 248.387 15.7523 250.89 16.7521C253.392 17.752 255.673 19.2349 257.602 21.1162C259.531 22.9975 261.071 25.2403 262.133 27.7167C263.196 30.1931 263.76 32.8545 263.794 35.5489C263.828 38.2433 263.33 40.918 262.331 43.4203L254.97 61.8425C253.524 65.4595 250.702 68.3543 247.122 69.89C243.542 71.4256 239.499 71.4764 235.882 70.0312Z" fill="white"/>
<path d="M257.881 53.8374L259.28 62.3501C259.315 62.5618 259.297 62.7788 259.228 62.9819C259.159 63.185 259.041 63.3679 258.884 63.5143C258.727 63.6608 258.537 63.7663 258.329 63.8215C258.122 63.8767 257.904 63.8798 257.696 63.8306L252.358 62.5648L257.881 53.8374Z" fill="white"/>
<path d="M254.764 49.8919C254.764 49.8919 250.13 49.9437 248.198 45.8132" stroke="#EF4765" stroke-miterlimit="10" stroke-linecap="round"/>
<path d="M249.612 67.5688C249.612 67.5688 246.022 67.6132 244.527 64.4154" stroke="#EF4765" stroke-miterlimit="10" stroke-linecap="round"/>
<path d="M245.43 59.5446C247.18 59.5446 248.598 58.1261 248.598 56.3764C248.598 54.6266 247.18 53.2082 245.43 53.2082C243.68 53.2082 242.262 54.6266 242.262 56.3764C242.262 58.1261 243.68 59.5446 245.43 59.5446Z" fill="#FF9BAD"/>
<path d="M287.923 88.7947L290.442 90.4136C291.039 90.7977 291.835 90.6247 292.219 90.0272L311.31 60.33C311.694 59.7325 311.521 58.9367 310.924 58.5526L308.405 56.9337C307.808 56.5496 307.012 56.7226 306.628 57.3201L287.537 87.0172C287.153 87.6148 287.326 88.4106 287.923 88.7947Z" fill="#9E9E9E"/>
<path d="M290.858 105.188C290.858 105.188 299.386 92.2632 302.584 86.8002C305.493 81.8406 304.33 73.2539 302.095 70.1227C302.04 70.0497 301.964 69.9949 301.877 69.9653C301.791 69.9357 301.697 69.9326 301.609 69.9565C301.521 69.9804 301.442 70.0301 301.382 70.0992C301.322 70.1684 301.284 70.2539 301.273 70.3447C300.898 73.4095 300.239 76.4328 299.304 79.3756C299.285 79.4485 299.243 79.5129 299.183 79.5589C299.123 79.6049 299.05 79.6299 298.975 79.6299C298.9 79.6299 298.826 79.6049 298.767 79.5589C298.707 79.5129 298.665 79.4485 298.645 79.3756C298.016 77.0217 296.351 71.4847 293.73 68.0944C293.655 67.9997 293.551 67.9315 293.434 67.8999C293.316 67.8683 293.192 67.8748 293.079 67.9186C292.966 67.9623 292.87 68.041 292.805 68.1432C292.739 68.2454 292.708 68.3657 292.716 68.4867C292.923 71.2922 293.308 76.9328 293.256 79.5903C293.287 81.0263 292.957 82.447 292.296 83.7222C291.635 84.9974 290.665 86.0863 289.474 86.889C286.454 89.1097 285.447 92.8109 284.648 100.213L290.858 105.188Z" fill="white"/>
<path d="M240.715 88.103C236.91 89.4872 228.752 91.5673 217.027 89.9684V58.7303L232.75 67.6132C232.75 67.6132 231.469 79.5976 240.715 88.103Z" fill="white"/>
<path d="M232.757 67.7539C232.757 67.6576 232.757 67.6132 232.757 67.6132C232.757 67.6132 232.764 67.6576 232.757 67.7539Z" fill="#FFC875"/>
<path d="M285.032 97.4595C269.576 120.407 251.988 128.638 251.988 128.638C255.986 112.916 249.471 95.868 241.062 88.399L240.751 88.1029C236.947 89.4871 228.789 91.5672 217.064 89.9683V144.094C228.412 155.198 242.565 157.915 248.058 158.559C249.539 158.732 251.038 158.445 252.351 157.737C281.472 142.081 291.413 103.322 291.413 103.322L285.032 97.4595Z" fill="#FFC875"/>
<path d="M265.424 21.2151C259.576 23.0583 254.727 19.0314 252.729 17.5139C250.965 16.1348 249.02 15.0064 246.947 14.1606C233.09 8.47559 220.743 19.2683 218.656 25.6861C216.916 31.0306 218.078 53.1267 218.507 60.3588C218.581 61.5654 219.773 61.9356 220.935 61.6247C223.053 61.0621 226.117 59.0634 230.026 55.4659C236.096 49.8623 245.06 39.2843 247.791 33.2587C252.233 37.8482 260.227 43.8738 268.622 40.1133C281.413 34.4209 276.816 17.6323 265.424 21.2151Z" fill="#EF4765"/>
<path d="M235.851 53.4006C238.402 53.4006 240.47 51.3326 240.47 48.7815C240.47 46.2305 238.402 44.1624 235.851 44.1624C233.3 44.1624 231.232 46.2305 231.232 48.7815C231.232 51.3326 233.3 53.4006 235.851 53.4006Z" fill="white"/>
<path d="M206.427 12.5691H108.36C101.406 12.5691 95.7684 18.2065 95.7684 25.1606V249.408C95.7684 256.362 101.406 262 108.36 262H206.427C213.381 262 219.018 256.362 219.018 249.408V25.1606C219.018 18.2065 213.381 12.5691 206.427 12.5691Z" fill="#ACACAC"/>
<path d="M211.408 28.995H103.371V245.566H211.408V28.995Z" fill="white"/>
<path d="M195.693 71.8326H118.59C117.763 71.8326 116.944 71.6696 116.181 71.3529C115.417 71.0363 114.723 70.5721 114.138 69.9871C113.554 69.402 113.091 68.7075 112.775 67.9433C112.459 67.1791 112.297 66.3601 112.298 65.5332V48.2486C112.297 47.4221 112.459 46.6034 112.775 45.8396C113.091 45.0758 113.554 44.3818 114.139 43.7973C114.723 43.2129 115.417 42.7494 116.181 42.4336C116.945 42.1177 117.764 41.9556 118.59 41.9566H195.693C197.362 41.9566 198.962 42.6195 200.142 43.7995C201.322 44.9795 201.985 46.5799 201.985 48.2486V65.5036L204.695 73.4167C204.75 73.5774 204.76 73.7506 204.721 73.9163C204.683 74.082 204.599 74.2336 204.478 74.3535C204.357 74.4734 204.205 74.5567 204.039 74.594C203.873 74.6313 203.7 74.6209 203.54 74.5641L195.693 71.8326Z" fill="#F1F2F2"/>
<path d="M148.999 58.7967C150.324 58.7967 151.397 57.723 151.397 56.3984C151.397 55.0738 150.324 54 148.999 54C147.674 54 146.601 55.0738 146.601 56.3984C146.601 57.723 147.674 58.7967 148.999 58.7967Z" fill="#ACACAC"/>
<path d="M158.398 58.7967C159.723 58.7967 160.797 57.723 160.797 56.3984C160.797 55.0738 159.723 54 158.398 54C157.074 54 156 55.0738 156 56.3984C156 57.723 157.074 58.7967 158.398 58.7967Z" fill="#ACACAC"/>
<path d="M168.398 58.7967C169.723 58.7967 170.797 57.723 170.797 56.3984C170.797 55.0738 169.723 54 168.398 54C167.074 54 166 55.0738 166 56.3984C166 57.723 167.074 58.7967 168.398 58.7967Z" fill="#ACACAC"/>
<path d="M121.344 232.286H198.425C200.095 232.286 201.698 231.623 202.879 230.441C204.06 229.26 204.724 227.658 204.724 225.987V208.732C204.724 207.905 204.561 207.086 204.244 206.323C203.928 205.559 203.464 204.865 202.879 204.28C202.294 203.696 201.599 203.233 200.835 202.917C200.071 202.601 199.252 202.439 198.425 202.44H121.344C119.675 202.44 118.075 203.103 116.895 204.283C115.715 205.463 115.052 207.063 115.052 208.732V225.987L112.35 233.856C112.295 234.016 112.286 234.188 112.324 234.353C112.362 234.517 112.446 234.668 112.565 234.788C112.685 234.907 112.836 234.991 113 235.029C113.165 235.067 113.337 235.058 113.497 235.003L121.344 232.286Z" fill="#F1F2F2"/>
<path d="M168.045 219.665C169.37 219.665 170.444 218.592 170.444 217.267C170.444 215.942 169.37 214.869 168.045 214.869C166.721 214.869 165.647 215.942 165.647 217.267C165.647 218.592 166.721 219.665 168.045 219.665Z" fill="white"/>
<path d="M158.398 219.797C159.723 219.797 160.797 218.723 160.797 217.398C160.797 216.074 159.723 215 158.398 215C157.074 215 156 216.074 156 217.398C156 218.723 157.074 219.797 158.398 219.797Z" fill="#ACACAC"/>
<path d="M148.999 219.797C150.324 219.797 151.397 218.723 151.397 217.398C151.397 216.074 150.324 215 148.999 215C147.674 215 146.601 216.074 146.601 217.398C146.601 218.723 147.674 219.797 148.999 219.797Z" fill="#ACACAC"/>
<path d="M121.344 131.666H198.425C200.095 131.666 201.698 131.002 202.879 129.821C204.06 128.64 204.724 127.037 204.724 125.367V89.6057C204.724 88.7787 204.561 87.96 204.245 87.1961C203.928 86.4322 203.464 85.7383 202.879 85.1539C202.294 84.5695 201.599 84.1062 200.835 83.7905C200.071 83.4747 199.252 83.3127 198.425 83.3136H121.344C119.675 83.3136 118.075 83.9765 116.895 85.1565C115.715 86.3365 115.052 87.9369 115.052 89.6057V125.367L112.35 133.228C112.293 133.388 112.283 133.561 112.32 133.727C112.357 133.893 112.441 134.045 112.561 134.166C112.68 134.287 112.832 134.371 112.998 134.409C113.163 134.448 113.337 134.438 113.497 134.383L121.344 131.666Z" fill="#F1F2F2"/>
<path d="M168.398 112.797C169.723 112.797 170.797 111.723 170.797 110.398C170.797 109.074 169.723 108 168.398 108C167.074 108 166 109.074 166 110.398C166 111.723 167.074 112.797 168.398 112.797Z" fill="#ACACAC"/>
<path d="M158.398 112.797C159.723 112.797 160.797 111.723 160.797 110.398C160.797 109.074 159.723 108 158.398 108C157.074 108 156 109.074 156 110.398C156 111.723 157.074 112.797 158.398 112.797Z" fill="#ACACAC"/>
<path d="M148.999 112.797C150.324 112.797 151.397 111.723 151.397 110.398C151.397 109.074 150.324 108 148.999 108C147.674 108 146.601 109.074 146.601 110.398C146.601 111.723 147.674 112.797 148.999 112.797Z" fill="#ACACAC"/>
<path d="M195.693 191.063H118.59C117.763 191.063 116.944 190.9 116.181 190.583C115.417 190.266 114.723 189.802 114.138 189.217C113.554 188.632 113.091 187.938 112.775 187.173C112.459 186.409 112.297 185.59 112.298 184.763V149.002C112.297 148.176 112.459 147.357 112.775 146.593C113.091 145.829 113.554 145.135 114.139 144.551C114.723 143.967 115.417 143.503 116.181 143.187C116.945 142.871 117.764 142.709 118.59 142.71H195.693C197.362 142.71 198.962 143.373 200.142 144.553C201.322 145.733 201.985 147.334 201.985 149.002V184.763L204.695 192.595C204.749 192.756 204.758 192.929 204.719 193.094C204.68 193.26 204.596 193.411 204.476 193.531C204.356 193.651 204.205 193.736 204.039 193.774C203.874 193.813 203.701 193.804 203.54 193.75L195.693 191.063Z" fill="#F1F2F2"/>
<path d="M148.999 166.797C150.324 166.797 151.397 165.723 151.397 164.398C151.397 163.074 150.324 162 148.999 162C147.674 162 146.601 163.074 146.601 164.398C146.601 165.723 147.674 166.797 148.999 166.797Z" fill="#ACACAC"/>
<path d="M158.398 166.797C159.723 166.797 160.797 165.723 160.797 164.398C160.797 163.074 159.723 162 158.398 162C157.074 162 156 163.074 156 164.398C156 165.723 157.074 166.797 158.398 166.797Z" fill="#ACACAC"/>
<path d="M168.398 166.797C169.723 166.797 170.797 165.723 170.797 164.398C170.797 163.074 169.723 162 168.398 162C167.074 162 166 163.074 166 164.398C166 165.723 167.074 166.797 168.398 166.797Z" fill="#ACACAC"/>
<path d="M14.7569 158.603C14.7569 158.603 8.36121 113.034 36.3126 89.8499C64.2639 66.6657 69.9194 110.354 53.9006 104.773C42.0568 100.643 66.6919 65.0668 89.0767 87.4516C111.461 109.836 122.18 203.906 169.851 227.386C200.497 242.457 209.906 209.309 194.635 205.001C184.271 202.04 179.978 227.949 210.357 218.326C240.737 208.702 238.605 159.432 242.602 129.053C246.599 98.6736 258.591 73.0909 282.575 76.2888" stroke="#EF4765" stroke-miterlimit="10"/>
<path d="M33.1369 170.195C33.4552 169.973 35.7722 168.345 37.0232 167.234C38.2742 166.124 42.8266 161.187 39.2809 158.3C36.2163 155.798 33.322 159.78 33.1221 160.069C32.9148 159.78 30.0279 155.798 26.9559 158.3C23.4102 161.187 27.9775 166.109 29.2137 167.234C30.4499 168.36 32.789 169.988 33.0999 170.195H33.1369Z" fill="#FF9BAD"/>
<path d="M280.968 67.9537C281.287 67.7316 283.604 66.1031 284.855 64.9927C286.106 63.8824 290.658 58.945 287.075 56.0581C284.011 53.5561 281.154 57.5385 280.917 57.8272C280.709 57.5385 277.822 53.5561 274.75 56.0581C271.205 58.945 275.772 63.8676 277.008 64.9927C278.244 66.1179 280.584 67.7464 280.894 67.9537H280.968Z" fill="#FF9BAD"/>
<path d="M59.3044 75.6374C59.6301 75.408 62.0359 73.7202 63.3313 72.558C64.6267 71.3959 69.3421 66.2956 65.6705 63.3051C62.4949 60.7142 59.4969 64.8374 59.2896 65.1409C59.075 64.8374 56.0844 60.6994 52.9014 63.3051C49.2002 66.266 53.9599 71.3959 55.2405 72.558C56.5211 73.7202 58.9417 75.408 59.2674 75.6374H59.3044Z" fill="#FF9BAD"/>
<path d="M47.0091 75.6374C47.1423 75.4005 48.112 73.6831 48.5562 72.6024C49.0003 71.5216 50.3919 67.0728 47.2977 66.3178C44.6255 65.6664 44.0037 69.0344 43.9593 69.2787C43.7446 69.1603 40.7393 67.5318 39.5623 70.019C38.2002 72.8911 42.5232 74.6158 43.6558 74.9489C44.7884 75.2821 46.7204 75.6078 46.9869 75.6892L47.0091 75.6374Z" fill="#FF9BAD"/>
<path d="M188.098 198.902C187.773 198.672 185.367 196.985 184.071 195.822C182.776 194.66 178.061 189.56 181.732 186.569C184.908 183.979 187.906 188.102 188.113 188.405C188.328 188.102 191.318 183.964 194.494 186.569C198.195 189.53 193.443 194.66 192.155 195.822C190.867 196.985 188.454 198.672 188.135 198.902H188.098Z" fill="#FF9BAD"/>
<path d="M200.393 198.894C200.26 198.657 199.291 196.94 198.846 195.859C198.402 194.779 197.011 190.33 200.097 189.575C202.777 188.923 203.399 192.291 203.436 192.536C203.651 192.417 206.663 190.789 207.877 193.276C209.239 196.148 204.916 197.873 203.784 198.206C202.651 198.539 200.712 198.865 200.453 198.909L200.393 198.894Z" fill="#FF9BAD"/>
</svg>
