<?xml version="1.0" encoding="iso-8859-1"?>
<!-- Generator: Adobe Illustrator 18.0.0, SVG Export Plug-In . SVG Version: 6.00 Build 0)  -->
<!DOCTYPE svg PUBLIC "-//W3C//DTD SVG 1.1//EN" "http://www.w3.org/Graphics/SVG/1.1/DTD/svg11.dtd">
<svg version="1.1" id="Capa_1" xmlns="http://www.w3.org/2000/svg" xmlns:xlink="http://www.w3.org/1999/xlink" x="0px" y="0px"
	 viewBox="0 0 486.35 486.35" style="enable-background:new 0 0 486.35 486.35;" xml:space="preserve">
<g>
	<path d="M242.275,140.543c-43.036,0-78.048,35.012-78.048,78.047c0,43.035,35.012,78.047,78.048,78.047
		c43.035,0,78.046-35.011,78.046-78.046C320.321,175.555,285.31,140.543,242.275,140.543z M242.275,268.637
		c-27.597,0-50.048-22.451-50.048-50.047s22.451-50.047,50.048-50.047c27.596,0,50.046,22.451,50.046,50.048
		C292.321,246.186,269.871,268.637,242.275,268.637z"/>
	<path d="M437.549,0l-61.686,0.002c-7.732,0-14,6.268-14,14c0,7.732,6.269,14,14,14L413.926,28l-35.398,35.398l-26.662-26.617
		c-5.472-5.463-14.337-5.455-19.799,0.017c-5.462,5.472-5.455,14.336,0.018,19.799l26.645,26.6l-25.94,25.94
		c-24.599-20.377-56.149-32.641-90.513-32.641c-34.168,0-65.555,12.124-90.092,32.294L125.66,82.267l36.136-9.372
		c7.484-1.941,11.979-9.582,10.037-17.066c-1.941-7.484-9.579-11.981-17.066-10.037l-36.783,9.54l9.539-36.784
		c1.94-7.484-2.553-15.125-10.037-17.066c-7.487-1.94-15.125,2.553-17.066,10.037l-9.371,36.136L69.201,25.808
		c-5.467-5.468-14.332-5.468-19.799,0c-5.468,5.467-5.468,14.332,0,19.799l21.846,21.846l-36.133,9.371
		c-7.484,1.941-11.979,9.582-10.037,17.066c1.636,6.306,7.316,10.489,13.542,10.489c1.163,0,2.347-0.146,3.524-0.452l36.783-9.54
		l-9.539,36.784c-1.941,7.484,2.553,15.126,10.037,17.066c1.179,0.306,2.36,0.452,3.524,0.452c6.225,0,11.906-4.183,13.542-10.489
		l9.371-36.133l26.531,26.532c-20.12,24.522-32.213,55.87-32.213,89.992c0,73.688,56.385,134.448,128.273,141.419v53.84h-38
		c-7.732,0-14,6.268-14,14s6.268,14,14,14h38v30.5c0,7.732,6.268,14,14,14c7.732,0,14-6.268,14-14v-30.5h38c7.732,0,14-6.268,14-14
		s-6.268-14-14-14h-38v-53.872c71.718-7.139,127.914-67.822,127.914-141.387c0-33.926-11.957-65.108-31.87-89.567l26.045-26.045
		l22.166,22.128c2.732,2.729,6.312,4.092,9.891,4.092c3.587,0,7.174-1.37,9.908-4.109c5.462-5.472,5.455-14.336-0.017-19.799
		L398.343,83.18l35.38-35.379l-0.001,39.258c0,7.732,6.268,14,14,14c7.731,0,14-6.268,14-13.999l0.002-62.883
		C461.724,10.845,450.879,0,437.549,0z M242.275,332.684c-62.911,0-114.094-51.182-114.094-114.093
		c0-62.912,51.183-114.094,114.094-114.094s114.094,51.183,114.094,114.095C356.369,281.502,305.186,332.684,242.275,332.684z"/>
</g>
<g>
</g>
<g>
</g>
<g>
</g>
<g>
</g>
<g>
</g>
<g>
</g>
<g>
</g>
<g>
</g>
<g>
</g>
<g>
</g>
<g>
</g>
<g>
</g>
<g>
</g>
<g>
</g>
<g>
</g>
</svg>