<svg width="48" height="50" viewBox="0 0 48 50" fill="none" xmlns="http://www.w3.org/2000/svg">
<path d="M20.0628 6.13635C20.4821 5.64967 21.0021 5.2525 21.5897 4.97017C22.1772 4.68784 22.8193 4.52654 23.4751 4.49656C24.131 4.46658 24.7861 4.56857 25.3987 4.79603C26.0113 5.02349 26.568 5.37144 27.0333 5.81768C27.8862 6.68222 28.3529 7.83468 28.3329 9.02721V16.7893C28.3329 17.393 28.5819 17.972 29.025 18.3988C29.4681 18.8257 30.0691 19.0655 30.6958 19.0655C31.3225 19.0655 31.9235 18.8257 32.3666 18.3988C32.8098 17.972 33.0587 17.393 33.0587 16.7893V9.02721C33.0047 7.20015 32.3811 5.43105 31.269 3.95008C30.157 2.46912 28.608 1.34485 26.8236 0.723568C25.0393 0.102283 23.1021 0.0127387 21.2641 0.466587C19.4262 0.920436 17.7726 1.89667 16.5185 3.26826C16.2434 3.47785 16.0203 3.74379 15.8652 4.04679C15.7101 4.34978 15.6269 4.68224 15.6218 5.02003C15.6166 5.35783 15.6896 5.6925 15.8354 5.99975C15.9811 6.30701 16.1961 6.57916 16.4646 6.79645C16.7331 7.01374 17.0485 7.17073 17.3878 7.25602C17.7272 7.34132 18.0819 7.35278 18.4264 7.28958C18.7709 7.22638 19.0965 7.09011 19.3795 6.89064C19.6626 6.69117 19.896 6.43351 20.0628 6.13635ZM39.4858 27.8519H39.9583C40.5145 27.8617 41.0563 27.6821 41.4886 27.3448C41.9208 27.0076 42.2156 26.5342 42.3212 26.0082C42.4906 24.9084 42.5539 23.7958 42.5103 22.6848C42.5103 22.0811 42.2613 21.5021 41.8182 21.0752C41.3751 20.6484 40.7741 20.4085 40.1474 20.4085C39.5207 20.4085 38.9197 20.6484 38.4766 21.0752C38.0334 21.5021 37.7845 22.0811 37.7845 22.6848C37.7847 23.5257 37.6976 24.3645 37.5246 25.1887C37.4671 25.4881 37.4726 25.7955 37.5406 26.0928C37.6087 26.3902 37.738 26.6713 37.9209 26.9196C38.1037 27.1679 38.3364 27.3784 38.6052 27.5385C38.874 27.6987 39.1735 27.8053 39.4858 27.8519ZM46.5744 41.6461L4.04242 0.673316C3.82275 0.459965 3.56142 0.290624 3.27348 0.175061C2.98554 0.0594976 2.67669 0 2.36476 0C2.05283 0 1.74399 0.0594976 1.45605 0.175061C1.16811 0.290624 0.906772 0.459965 0.687111 0.673316C0.247021 1.0998 0 1.67673 0 2.27808C0 2.87944 0.247021 3.45636 0.687111 3.88285L14.1556 16.9486V22.6848C14.1573 24.2823 14.5952 25.8512 15.4255 27.2341C16.2557 28.6169 17.449 29.765 18.8856 30.563C20.3221 31.3611 21.9513 31.7809 23.6096 31.7805C25.2678 31.7801 26.8968 31.3594 28.3329 30.5607L31.7827 33.884C29.6571 35.3294 27.1596 36.1834 24.5638 36.3526C21.9679 36.5217 19.3738 35.9994 17.0655 34.8429C14.7572 33.6864 12.8238 31.9403 11.477 29.7959C10.1302 27.6514 9.42194 25.1912 9.4298 22.6848C9.4298 22.0811 9.18086 21.5021 8.73773 21.0752C8.2946 20.6484 7.69359 20.4085 7.06691 20.4085C6.44024 20.4085 5.83923 20.6484 5.3961 21.0752C4.95297 21.5021 4.70402 22.0811 4.70402 22.6848C4.7082 27.1174 6.39047 31.3963 9.43547 34.7194C12.4805 38.0424 16.6791 40.1815 21.2443 40.7356V45.4475H16.5185C15.8918 45.4475 15.2908 45.6873 14.8477 46.1142C14.4045 46.541 14.1556 47.12 14.1556 47.7237C14.1556 48.3274 14.4045 48.9064 14.8477 49.3333C15.2908 49.7602 15.8918 50 16.5185 50H30.6958C31.3225 50 31.9235 49.7602 32.3666 49.3333C32.8098 48.9064 33.0587 48.3274 33.0587 47.7237C33.0587 47.12 32.8098 46.541 32.3666 46.1142C31.9235 45.6873 31.3225 45.4475 30.6958 45.4475H25.97V40.7356C29.2848 40.3382 32.4273 39.088 35.0672 37.1163L43.101 44.8556C43.5428 45.2843 44.1433 45.5263 44.7703 45.5284C45.3973 45.5305 45.9995 45.2926 46.4445 44.867C46.8894 44.4414 47.1406 43.863 47.1428 43.2589C47.1451 42.6549 46.8981 42.0747 46.4563 41.6461H46.5744ZM23.6071 27.2373C22.3538 27.2373 21.1518 26.7577 20.2655 25.9039C19.3793 25.0502 18.8814 23.8922 18.8814 22.6848V21.5012L24.6704 27.1008C24.3237 27.1908 23.9662 27.2367 23.6071 27.2373Z" fill="#ACACAC"/>
</svg>
