<svg width="52" height="51" viewBox="0 0 52 51" fill="none" xmlns="http://www.w3.org/2000/svg">
<path d="M14.8493 10.821L4.45444 0.741101C4.21214 0.506143 3.92448 0.319764 3.6079 0.192606C3.29132 0.0654474 2.95201 0 2.60935 0C2.26668 0 1.92737 0.0654474 1.61079 0.192606C1.29421 0.319764 1.00656 0.506143 0.76426 0.741101C0.274913 1.21562 0 1.85921 0 2.53028C0 3.20135 0.274913 3.84493 0.76426 4.31945L6.81927 10.0902C4.92713 10.3244 3.18921 11.2232 1.93448 12.6164C0.679747 14.0095 -0.00472333 15.8004 0.010633 17.6501V32.7699C0.010633 34.7749 0.83201 36.6978 2.29407 38.1155C3.75613 39.5333 5.73911 40.3298 7.80678 40.3298H31.1952C32.9989 40.3215 34.7439 39.707 36.1328 38.591L47.5411 49.6788C47.7827 49.915 48.0701 50.1025 48.3868 50.2304C48.7035 50.3584 49.0432 50.4242 49.3862 50.4242C49.7293 50.4242 50.0689 50.3584 50.3856 50.2304C50.7023 50.1025 50.9897 49.915 51.2313 49.6788C51.4749 49.4446 51.6682 49.1659 51.8001 48.8588C51.9321 48.5517 52 48.2223 52 47.8897C52 47.557 51.9321 47.2276 51.8001 46.9205C51.6682 46.6135 51.4749 46.3348 51.2313 46.1005L14.8493 10.821ZM31.1952 35.2898H7.80678C7.11756 35.2898 6.45656 35.0243 5.96921 34.5518C5.48186 34.0792 5.20806 33.4382 5.20806 32.7699V17.6501C5.20806 16.9817 5.48186 16.3408 5.96921 15.8682C6.45656 15.3956 7.11756 15.1301 7.80678 15.1301H11.9387L32.3906 34.9874C32.023 35.18 31.613 35.2837 31.1952 35.2898ZM50.7635 12.9881C50.3685 12.767 49.9204 12.6505 49.4642 12.6505C49.008 12.6505 48.5599 12.767 48.1648 12.9881L38.9914 17.3729C38.9173 15.4163 38.0634 13.5639 36.6093 12.2055C35.1552 10.8472 33.2143 10.0889 31.1952 10.0902H27.7129C27.0237 10.0902 26.3627 10.3557 25.8754 10.8283C25.388 11.3008 25.1142 11.9418 25.1142 12.6101C25.1142 13.2785 25.388 13.9194 25.8754 14.392C26.3627 14.8646 27.0237 15.1301 27.7129 15.1301H31.1952C31.8844 15.1301 32.5454 15.3956 33.0328 15.8682C33.5201 16.3408 33.7939 16.9817 33.7939 17.6501V21.43C33.7843 21.5895 33.7843 21.7494 33.7939 21.9088C33.8093 22.0824 33.8532 22.2526 33.9239 22.4128C33.9239 22.4128 34.0538 22.564 34.1058 22.6648C34.2116 22.8568 34.3426 23.0347 34.4956 23.194C34.4956 23.194 34.7555 23.3452 34.8854 23.446L35.3272 23.7232C35.5255 23.7494 35.7266 23.7494 35.9249 23.7232C36.0458 23.735 36.1677 23.735 36.2887 23.7232C36.4531 23.7326 36.618 23.7326 36.7824 23.7232C36.9615 23.7083 37.137 23.6657 37.3022 23.5972L46.7875 19.2125V33.6267C46.7875 34.295 47.0613 34.936 47.5486 35.4085C48.036 35.8811 48.697 36.1466 49.3862 36.1466C50.0754 36.1466 50.7364 35.8811 51.2238 35.4085C51.7111 34.936 51.9849 34.295 51.9849 33.6267V15.1301C51.9858 14.7019 51.8741 14.2804 51.6604 13.9057C51.4467 13.5309 51.138 13.2151 50.7635 12.9881Z" fill="#ACACAC"/>
</svg>
