<svg width="30" height="18" viewBox="0 0 30 18" fill="none" xmlns="http://www.w3.org/2000/svg">
<path d="M29.2251 12.9379L16.9883 0.843734C16.7231 0.576383 16.4076 0.364182 16.0601 0.21937C15.7125 0.0745573 15.3396 0 14.9631 0C14.5865 0 14.2137 0.0745573 13.8661 0.21937C13.5185 0.364182 13.2031 0.576383 12.9379 0.843734L0.843734 12.9379C0.576383 13.2031 0.364181 13.5185 0.219368 13.8661C0.0745559 14.2137 0 14.5865 0 14.9631C0 15.3396 0.0745559 15.7125 0.219368 16.0601C0.364181 16.4076 0.576383 16.7231 0.843734 16.9883C1.37817 17.5196 2.10111 17.8177 2.85467 17.8177C3.60823 17.8177 4.33118 17.5196 4.86561 16.9883L14.9631 6.89081L25.0606 16.9883C25.5919 17.5153 26.3089 17.8123 27.0572 17.8155C27.4326 17.8177 27.8048 17.7457 28.1523 17.6038C28.4998 17.4618 28.8159 17.2527 29.0824 16.9883C29.3593 16.7327 29.5828 16.4247 29.74 16.0822C29.8972 15.7397 29.985 15.3694 29.9982 14.9928C30.0115 14.6162 29.95 14.2407 29.8173 13.888C29.6846 13.5353 29.4833 13.2124 29.2251 12.9379Z" fill="#ACACAC"/>
</svg>
