<svg width="63" height="50" viewBox="0 0 63 50" fill="none" xmlns="http://www.w3.org/2000/svg">
<path d="M51.3815 13.1569C49.4705 8.76577 46.1725 5.12234 41.9927 2.78493C37.8129 0.447523 32.9821 -0.454929 28.2403 0.215869C23.4986 0.886667 19.1076 3.09371 15.7402 6.49879C12.3728 9.90388 10.2148 14.3192 9.59683 19.0681C6.61493 19.7822 3.99912 21.5665 2.24616 24.0822C0.493187 26.5979 -0.274855 29.6698 0.0878819 32.7144C0.450619 35.7591 1.91887 38.5646 4.21382 40.598C6.50876 42.6314 9.47057 43.7513 12.5368 43.7448C13.3663 43.7448 14.1618 43.4153 14.7483 42.8288C15.3349 42.2422 15.6644 41.4467 15.6644 40.6172C15.6644 39.7877 15.3349 38.9922 14.7483 38.4057C14.1618 37.8191 13.3663 37.4896 12.5368 37.4896C10.8778 37.4896 9.28676 36.8306 8.11368 35.6575C6.9406 34.4844 6.28158 32.8934 6.28158 31.2344C6.28158 29.5754 6.9406 27.9844 8.11368 26.8113C9.28676 25.6382 10.8778 24.9792 12.5368 24.9792C13.3663 24.9792 14.1618 24.6497 14.7483 24.0632C15.3349 23.4766 15.6644 22.6811 15.6644 21.8516C15.6724 18.1525 16.9914 14.5761 19.3871 11.7576C21.7827 8.93907 25.1 7.06106 28.7495 6.45719C32.3989 5.85332 36.1443 6.56269 39.3202 8.45928C42.4961 10.3559 44.8968 13.3168 46.0959 16.8162C46.2747 17.3536 46.596 17.8324 47.0257 18.2015C47.4553 18.5706 47.9772 18.816 48.5354 18.9117C50.6186 19.3054 52.5071 20.3929 53.8931 21.9972C55.2791 23.6014 56.081 25.6278 56.168 27.746C56.2551 29.8643 55.6222 31.9496 54.3725 33.6622C53.1228 35.3747 51.3299 36.6136 49.286 37.1768C48.4814 37.3842 47.7922 37.9027 47.3699 38.6183C46.9475 39.3339 46.8268 40.1879 47.0342 40.9925C47.2415 41.7971 47.7601 42.4864 48.4756 42.9087C49.1912 43.331 50.0452 43.4518 50.8498 43.2444C54.1413 42.3746 57.059 40.4545 59.1599 37.7757C61.2608 35.0968 62.4301 31.8055 62.4902 28.4017C62.5504 24.9978 61.4981 21.6672 59.4932 18.9158C57.4882 16.1644 54.6402 14.1424 51.3815 13.1569ZM33.523 19.631C33.2255 19.3463 32.8748 19.1231 32.4908 18.9742C31.7294 18.6614 30.8753 18.6614 30.1139 18.9742C29.73 19.1231 29.3792 19.3463 29.0818 19.631L19.699 29.0138C19.11 29.6028 18.7792 30.4015 18.7792 31.2344C18.7792 32.0673 19.11 32.8661 19.699 33.455C20.2879 34.0439 21.0867 34.3748 21.9196 34.3748C22.7524 34.3748 23.5512 34.0439 24.1402 33.455L28.1748 29.3891V46.8724C28.1748 47.7019 28.5043 48.4974 29.0908 49.084C29.6774 49.6705 30.4729 50 31.3024 50C32.1318 50 32.9274 49.6705 33.5139 49.084C34.1004 48.4974 34.43 47.7019 34.43 46.8724V29.3891L38.4646 33.455C38.7553 33.7482 39.1012 33.9808 39.4823 34.1396C39.8635 34.2984 40.2723 34.3801 40.6852 34.3801C41.098 34.3801 41.5068 34.2984 41.888 34.1396C42.2691 33.9808 42.615 33.7482 42.9057 33.455C43.1989 33.1643 43.4316 32.8183 43.5903 32.4372C43.7491 32.0561 43.8309 31.6473 43.8309 31.2344C43.8309 30.8215 43.7491 30.4127 43.5903 30.0316C43.4316 29.6505 43.1989 29.3046 42.9057 29.0138L33.523 19.631Z" fill="#ACACAC"/>
</svg>
