<svg width="54" height="33" viewBox="0 0 54 33" fill="none" xmlns="http://www.w3.org/2000/svg">
<path d="M52.731 3.13637C52.3205 2.897 51.8549 2.77098 51.381 2.77098C50.9071 2.77098 50.4415 2.897 50.031 3.13637L40.5 7.88182C40.4231 5.76428 39.5359 3.75947 38.0251 2.28938C36.5143 0.819286 34.4978 -0.00142302 32.4 1.85225e-06H8.1C5.95175 1.85225e-06 3.89148 0.862013 2.37244 2.3964C0.853391 3.93079 0 6.01187 0 8.18182V24.5455C0 26.7154 0.853391 28.7965 2.37244 30.3309C3.89148 31.8653 5.95175 32.7273 8.1 32.7273H32.4C34.4978 32.7287 36.5143 31.908 38.0251 30.4379C39.5359 28.9678 40.4231 26.963 40.5 24.8455L50.112 29.7C50.48 29.8906 50.8865 29.9932 51.3 30C51.8055 30.0016 52.3013 29.8599 52.731 29.5909C53.1201 29.3453 53.4408 29.0035 53.6628 28.5979C53.8849 28.1923 54.0009 27.7362 54 27.2727V5.45455C54.0009 4.99106 53.8849 4.53499 53.6628 4.12938C53.4408 3.72377 53.1201 3.38201 52.731 3.13637ZM35.1 24.5455C35.1 25.2688 34.8155 25.9625 34.3092 26.4739C33.8028 26.9854 33.1161 27.2727 32.4 27.2727H8.1C7.38391 27.2727 6.69716 26.9854 6.19081 26.4739C5.68446 25.9625 5.4 25.2688 5.4 24.5455V8.18182C5.4 7.4585 5.68446 6.76481 6.19081 6.25335C6.69716 5.74188 7.38391 5.45455 8.1 5.45455H32.4C33.1161 5.45455 33.8028 5.74188 34.3092 6.25335C34.8155 6.76481 35.1 7.4585 35.1 8.18182V24.5455ZM48.6 22.8545L40.5 18.7636V13.9636L48.6 9.87273V22.8545Z" fill="#ACACAC"/>
</svg>
