<svg width="53" height="50" viewBox="0 0 53 50" fill="none" xmlns="http://www.w3.org/2000/svg">
<path d="M44.7368 10.5263H36.8421V7.89474C36.8421 5.80092 36.0103 3.79287 34.5298 2.31232C33.0492 0.831765 31.0412 0 28.9474 0H23.6842C21.5904 0 19.5823 0.831765 18.1018 2.31232C16.6212 3.79287 15.7895 5.80092 15.7895 7.89474V10.5263H7.89474C5.80092 10.5263 3.79287 11.3581 2.31232 12.8386C0.831765 14.3192 0 16.3272 0 18.4211V42.1053C0 44.1991 0.831765 46.2071 2.31232 47.6877C3.79287 49.1682 5.80092 50 7.89474 50H44.7368C46.8307 50 48.8387 49.1682 50.3193 47.6877C51.7998 46.2071 52.6316 44.1991 52.6316 42.1053V18.4211C52.6316 16.3272 51.7998 14.3192 50.3193 12.8386C48.8387 11.3581 46.8307 10.5263 44.7368 10.5263ZM21.0526 7.89474C21.0526 7.1968 21.3299 6.52745 21.8234 6.03393C22.3169 5.54041 22.9863 5.26316 23.6842 5.26316H28.9474C29.6453 5.26316 30.3147 5.54041 30.8082 6.03393C31.3017 6.52745 31.5789 7.1968 31.5789 7.89474V10.5263H21.0526V7.89474ZM47.3684 42.1053C47.3684 42.8032 47.0912 43.4726 46.5977 43.9661C46.1041 44.4596 45.4348 44.7368 44.7368 44.7368H7.89474C7.1968 44.7368 6.52745 44.4596 6.03393 43.9661C5.54041 43.4726 5.26316 42.8032 5.26316 42.1053V27.6316C11.9638 30.2898 19.1071 31.656 26.3158 31.6579C33.5243 31.6535 40.667 30.2874 47.3684 27.6316V42.1053ZM47.3684 21.8684C40.7326 24.7836 33.5637 26.2889 26.3158 26.2889C19.0679 26.2889 11.899 24.7836 5.26316 21.8684V18.4211C5.26316 17.7231 5.54041 17.0538 6.03393 16.5602C6.52745 16.0667 7.1968 15.7895 7.89474 15.7895H44.7368C45.4348 15.7895 46.1041 16.0667 46.5977 16.5602C47.0912 17.0538 47.3684 17.7231 47.3684 18.4211V21.8684Z" fill="#ACACAC"/>
</svg>
